<svg id="_037-audience" data-name="037-audience" xmlns="http://www.w3.org/2000/svg" width="114.371" height="114.371" viewBox="0 0 114.371 114.371">
  <g id="Group_41315" data-name="Group 41315" transform="translate(0 17.146)">
    <path id="Path_38445" data-name="Path 38445" d="M53.731,41.7a14.983,14.983,0,0,0,3.393-9.455,15.25,15.25,0,1,0-30.5,0A14.983,14.983,0,0,0,30.018,41.7,19.062,19.062,0,0,0,19,58.936v1.906a9.531,9.531,0,0,0,9.531,9.531H55.218a9.531,9.531,0,0,0,9.531-9.531V58.936A19.062,19.062,0,0,0,53.731,41.7ZM41.874,24.625A7.625,7.625,0,1,1,34.25,32.25,7.625,7.625,0,0,1,41.874,24.625Zm15.25,36.218a1.906,1.906,0,0,1-1.906,1.906H28.531a1.906,1.906,0,0,1-1.906-1.906V58.936A11.437,11.437,0,0,1,38.062,47.5h7.625A11.437,11.437,0,0,1,57.124,58.936Z" transform="translate(49.623 26.852)" fill="#011839"/>
    <path id="Path_38446" data-name="Path 38446" d="M35.731,41.7a14.983,14.983,0,0,0,3.393-9.455,15.25,15.25,0,0,0-30.5,0A14.983,14.983,0,0,0,12.018,41.7,19.062,19.062,0,0,0,1,58.936v1.906a9.531,9.531,0,0,0,9.531,9.531H37.218a9.531,9.531,0,0,0,9.531-9.531V58.936A19.062,19.062,0,0,0,35.731,41.7ZM23.874,24.625A7.625,7.625,0,1,1,16.25,32.25a7.625,7.625,0,0,1,7.625-7.625Zm15.25,36.218a1.906,1.906,0,0,1-1.906,1.906H10.531a1.906,1.906,0,0,1-1.906-1.906V58.936A11.437,11.437,0,0,1,20.062,47.5h7.625A11.437,11.437,0,0,1,39.124,58.936Z" transform="translate(-1 26.852)" fill="#011839"/>
    <path id="Path_38447" data-name="Path 38447" d="M29.888,16.487a3.431,3.431,0,0,0,1.6-.381l7.167-3.317a3.821,3.821,0,0,0-3.2-6.939L28.287,9.205a3.812,3.812,0,0,0,1.6,7.282Z" transform="translate(69.463 -5.498)" fill="#011839"/>
    <path id="Path_38448" data-name="Path 38448" d="M28.444,17.968l7.167,3.355a3.821,3.821,0,1,0,3.2-6.939l-7.167-3.317a3.812,3.812,0,1,0-3.2,6.9Z" transform="translate(69.306 8.843)" fill="#011839"/>
    <path id="Path_38449" data-name="Path 38449" d="M4.278,12.789l7.167,3.317a3.431,3.431,0,0,0,1.6.381,3.812,3.812,0,0,0,1.6-7.282L7.481,5.85a3.821,3.821,0,0,0-3.2,6.939Z" transform="translate(1.974 -5.498)" fill="#011839"/>
    <path id="Path_38450" data-name="Path 38450" d="M5.881,21.666a3.812,3.812,0,0,0,1.6-.343l7.167-3.355a3.812,3.812,0,1,0-3.2-6.9L4.28,14.384a3.815,3.815,0,0,0,1.6,7.282Z" transform="translate(1.973 8.843)" fill="#011839"/>
  </g>
  <path id="Path_38451" data-name="Path 38451" d="M26.714,32.49a7.968,7.968,0,0,1,0-1.372,13.343,13.343,0,0,1,26.687,0,7.967,7.967,0,0,1,0,1.372A32.329,32.329,0,0,1,69.261,47.74a32.024,32.024,0,0,0,3.05-14.335,32.405,32.405,0,1,0-64.81,0,32.024,32.024,0,0,0,3.355,14.258A32.329,32.329,0,0,1,26.714,32.49Z" transform="translate(17.28 -1)" fill="#23418f"/>
  <path id="Path_38452" data-name="Path 38452" d="M43.843,11.11a13.229,13.229,0,0,1-20.587,0A24.552,24.552,0,0,0,9.76,26.893a32.215,32.215,0,0,0,47.578,0,24.552,24.552,0,0,0-13.5-15.783Z" transform="translate(23.636 27.433)" fill="#23418f"/>
  <circle id="Ellipse_18460" data-name="Ellipse 18460" cx="5.719" cy="5.719" r="5.719" transform="translate(51.467 24.399)" fill="#23418f"/>
</svg>
