<svg xmlns="http://www.w3.org/2000/svg" width="217.133" height="51.455" viewBox="0 0 217.133 51.455">
  <g id="Group_41310" data-name="Group 41310" transform="translate(110.673 -14.576)">
    <text id="_" data-name=" " transform="translate(36.043 62.818)" font-size="1" font-family="SegoeUI, Segoe UI"><tspan x="0" y="0"> </tspan></text>
    <g id="Group_40847" data-name="Group 40847" transform="translate(45.786 19.576)">
      <g id="Group_40867" data-name="Group 40867" transform="translate(4.425 -5)">
        <g id="Group_40868" data-name="Group 40868" transform="translate(0 0)">
          <path id="Path_12154" data-name="Path 12154" d="M241.215,309.709a1.525,1.525,0,0,1-1.4-.9,4.692,4.692,0,0,1-.462-1.1c-.034-.112-.087-.237.09-.29a6.7,6.7,0,0,1,1.85-.423,1.294,1.294,0,0,1,1.171.641,5.761,5.761,0,0,1,.556,1.317.23.23,0,0,1-.145.314,3.713,3.713,0,0,1-1.657.444" transform="translate(-201.325 -258.26)" fill="#b1b1b1"/>
          <path id="Path_12155" data-name="Path 12155" d="M294.546,36.243a2.5,2.5,0,0,1-1.285,1.988c-.1.068-.157.013-.231-.049a2.1,2.1,0,0,1-.43-.642c-.166-.3-.336-.59-.5-.885a1.252,1.252,0,0,1,.073-1.41,10.145,10.145,0,0,1,.972-1.174c.077-.082.14-.134.246-.033a3.225,3.225,0,0,1,1.158,2.206" transform="translate(-245.575 -28.587)" fill="#b1b1b1"/>
          <path id="Path_12156" data-name="Path 12156" d="M331.41,113.816a1.328,1.328,0,0,1,.418-1.247,5.585,5.585,0,0,1,1.244-.572c.046-.019.093-.034.14-.05.558-.192.578-.179.658.415.055.4.119.8.168,1.208a1.2,1.2,0,0,1-.619,1.286,12.822,12.822,0,0,1-1.609.715c-.131.054-.183.012-.226-.132a8.2,8.2,0,0,1-.176-1.624" transform="translate(-278.797 -94.083)" fill="#b1b1b1"/>
          <path id="Path_12157" data-name="Path 12157" d="M291.851,75.715a1.915,1.915,0,0,1-1.521-.86,4.17,4.17,0,0,1-.564-.948.178.178,0,0,1,.082-.269,6.419,6.419,0,0,1,1.577-.769.843.843,0,0,1,.832.2,6.475,6.475,0,0,1,1.219,1.614.221.221,0,0,1-.029.316,2.185,2.185,0,0,1-1.6.717" transform="translate(-243.741 -61.272)" fill="#b1b1b1"/>
          <path id="Path_12158" data-name="Path 12158" d="M336.686,172.531c.24,0,.479.006.718,0,.148-.006.219.043.23.2a3.266,3.266,0,0,1-.57,2.292,1.084,1.084,0,0,1-.822.372,4.309,4.309,0,0,1-1.427-.051c-.236-.057-.389-.147-.281-.458.166-.478.255-.982.419-1.46a1.146,1.146,0,0,1,1.283-.888h.449" transform="translate(-281.399 -145.14)" fill="#b1b1b1"/>
          <path id="Path_12159" data-name="Path 12159" d="M312.609,122.036a2.8,2.8,0,0,1-.874-.08,1.678,1.678,0,0,1-1.345-1.624c-.026-.237-.035-.476-.061-.713-.019-.183.078-.248.237-.272a8.46,8.46,0,0,1,1.484-.129.994.994,0,0,1,.918.554,8.866,8.866,0,0,1,.529,1.456c.051.15.092.3.139.455.059.191-.018.3-.209.3a5.573,5.573,0,0,1-.819.055" transform="translate(-261.063 -100.29)" fill="#b1b1b1"/>
          <path id="Path_12160" data-name="Path 12160" d="M318.992,231.342a5.741,5.741,0,0,1-2.009-.706c-.1-.047-.092-.1-.033-.186.393-.551.74-1.136,1.182-1.65a.857.857,0,0,1,1.021-.28c.491.191.979.392,1.475.57.165.059.2.132.131.28a8.332,8.332,0,0,1-.845,1.51,1.031,1.031,0,0,1-.922.462" transform="translate(-266.599 -192.186)" fill="#b1b1b1"/>
          <path id="Path_12161" data-name="Path 12161" d="M327.851,204.239a3.657,3.657,0,0,1-1.112-.186c-.331-.09-.436-.261-.295-.571.24-.526.489-1.05.78-1.549a1.015,1.015,0,0,1,1.049-.475,5.458,5.458,0,0,1,1.425.293c.091.032.175.049.191.186a2.338,2.338,0,0,1-1.222,2.165,1.812,1.812,0,0,1-.816.137" transform="translate(-274.571 -169.472)" fill="#b1b1b1"/>
          <path id="Path_12162" data-name="Path 12162" d="M303.45,255.548a2.129,2.129,0,0,1-.613-.169,6.755,6.755,0,0,1-1.3-.792c-.166-.126-.235-.273-.058-.472a16.65,16.65,0,0,1,1.211-1.239.86.86,0,0,1,1.076-.142c.488.288.96.6,1.441.9.1.061.116.123.051.218a6.8,6.8,0,0,1-1.17,1.428,1.1,1.1,0,0,1-.641.264" transform="translate(-253.536 -212.504)" fill="#b1b1b1"/>
          <path id="Path_12163" data-name="Path 12163" d="M265.042,292.275a.972.972,0,0,1,.722.3c.421.429.719.952,1.095,1.415a.123.123,0,0,1-.024.2,5.551,5.551,0,0,1-1.671.959.939.939,0,0,1-.929-.264,8.366,8.366,0,0,1-1.2-1.482c-.08-.11-.005-.159.066-.217a4.741,4.741,0,0,1,1.938-.918" transform="translate(-221.252 -245.877)" fill="#b1b1b1"/>
          <path id="Path_12164" data-name="Path 12164" d="M317.786,170.239c0,.07,0,.14,0,.21.009.475-.079.565-.553.495a3.839,3.839,0,0,1-1.49-.583,1.345,1.345,0,0,1-.589-1.034,3.974,3.974,0,0,1,.161-1.684c.024-.075.023-.146.128-.173a2.118,2.118,0,0,1,1.975.853,4.106,4.106,0,0,1,.362,1.767c0,.05,0,.1,0,.15Z" transform="translate(-265.102 -140.859)" fill="#b1b1b1"/>
          <path id="Path_12165" data-name="Path 12165" d="M236.263,286.491a2.252,2.252,0,0,1,1.556-2.329c.563-.22.552-.25.736.313a10.071,10.071,0,0,1,.309,1.182,1.209,1.209,0,0,1-.449,1.277,5.3,5.3,0,0,1-1.435.894c-.217.08-.336.031-.439-.188a2.428,2.428,0,0,1-.28-1.148" transform="translate(-198.754 -238.928)" fill="#b1b1b1"/>
          <path id="Path_12166" data-name="Path 12166" d="M238.76,27.4a2.183,2.183,0,0,1-.825-.235c-.227-.1-.445-.222-.661-.344-.522-.3-.521-.3-.272-.858a1.739,1.739,0,0,1,2.4-1.171,11.455,11.455,0,0,1,1.163.368c.112.041.18.075.1.207a8.88,8.88,0,0,1-1.266,1.767.823.823,0,0,1-.642.266" transform="translate(-199.242 -20.76)" fill="#b1b1b1"/>
          <path id="Path_12167" data-name="Path 12167" d="M258.391,39.42a1.244,1.244,0,0,1-.766-.266c-.367-.239-.717-.5-1.075-.755-.147-.1-.189-.2-.053-.362.288-.344.568-.693.889-1.007a1.157,1.157,0,0,1,1.682-.217c.427.254.829.548,1.243.825a.161.161,0,0,1,.031.276,8.935,8.935,0,0,1-1.412,1.326.819.819,0,0,1-.541.181" transform="translate(-215.71 -30.745)" fill="#b1b1b1"/>
          <path id="Path_12168" data-name="Path 12168" d="M222.532,5.838c-.5.063-.756-.281-.973-.625a10.407,10.407,0,0,1-.691-1.393c-.058-.132-.069-.209.087-.274a5.638,5.638,0,0,1,1.677-.513,1.182,1.182,0,0,1,1.116.671,9.309,9.309,0,0,1,.744,1.564c.04.1.067.174-.092.209a14.222,14.222,0,0,1-1.868.361" transform="translate(-185.772 -2.548)" fill="#b1b1b1"/>
          <path id="Path_12169" data-name="Path 12169" d="M313.621,193a10.784,10.784,0,0,1-.373,1.955c-.039.149-.119.154-.24.083a11.405,11.405,0,0,1-1.542-.97,1.232,1.232,0,0,1-.422-1.159,12.044,12.044,0,0,1,.352-1.661c.025-.092.051-.16.155-.115a5.817,5.817,0,0,1,1.645.83,1.135,1.135,0,0,1,.425,1.036" transform="translate(-261.656 -160.782)" fill="#b1b1b1"/>
          <path id="Path_12170" data-name="Path 12170" d="M303.371,98.242a1.132,1.132,0,0,1-.983-.5,7.308,7.308,0,0,1-.748-1.754c-.026-.077-.034-.165.078-.189a16.72,16.72,0,0,1,1.777-.374.772.772,0,0,1,.658.283,3.529,3.529,0,0,1,.952,1.628c.038.154.228.316.09.458-.1.1-.293.1-.445.148a7.626,7.626,0,0,1-1.378.3" transform="translate(-253.742 -80.274)" fill="#b1b1b1"/>
          <path id="Path_12171" data-name="Path 12171" d="M253.091,2.217a4.235,4.235,0,0,1-.482,1.649c-.246.544-.258.548-.722.168a9.311,9.311,0,0,1-.727-.666,1.92,1.92,0,0,1-.368-2.546c.342-.642.342-.643.978-.287a4.148,4.148,0,0,1,.858.594,1.292,1.292,0,0,1,.464,1.087" transform="translate(-210.709 -0.25)" fill="#b1b1b1"/>
          <path id="Path_12172" data-name="Path 12172" d="M337.579,142.97a5.638,5.638,0,0,1,0,.715,1.491,1.491,0,0,1-1.28,1.346c-.377.082-.76.134-1.142.2-.215.035-.345-.023-.315-.281a16.38,16.38,0,0,1,.255-1.975,1,1,0,0,1,.683-.7,9.931,9.931,0,0,1,1.566-.339c.111-.02.174.01.208.143a3.727,3.727,0,0,1,.029.892" transform="translate(-281.68 -119.399)" fill="#b1b1b1"/>
          <path id="Path_12173" data-name="Path 12173" d="M304.914,216.147a8.833,8.833,0,0,1-.544,2.136c-.047.144-.125.124-.225.052a10.874,10.874,0,0,1-1.507-1.224,1.115,1.115,0,0,1-.221-1.228c.189-.514.419-1.013.631-1.52.043-.1.087-.178.22-.1a4.44,4.44,0,0,1,1.3.892,1.48,1.48,0,0,1,.347.995" transform="translate(-254.333 -180.222)" fill="#b1b1b1"/>
          <path id="Path_12174" data-name="Path 12174" d="M312.045,59.627a.675.675,0,0,1-.1.345,4.6,4.6,0,0,1-1.47,1.588c-.216.137-.308.082-.394-.133-.192-.482-.411-.953-.594-1.438a1.233,1.233,0,0,1,.407-1.576c.345-.3.692-.6,1.036-.906.1-.088.183-.167.268.019.279.607.566,1.211.8,1.838a1.442,1.442,0,0,1,.046.262" transform="translate(-260.25 -48.3)" fill="#b1b1b1"/>
          <path id="Path_12175" data-name="Path 12175" d="M292.618,237.208a3.774,3.774,0,0,1-.9,2.073.2.2,0,0,1-.353.008,11.216,11.216,0,0,1-1.214-1.515.929.929,0,0,1-.032-1c.309-.535.645-1.055.97-1.58.064-.1.129-.133.23-.026a11.121,11.121,0,0,1,1.087,1.271,1.166,1.166,0,0,1,.215.765" transform="translate(-243.951 -197.781)" fill="#b1b1b1"/>
          <path id="Path_12176" data-name="Path 12176" d="M322.683,85.838a1.15,1.15,0,0,1,.642-1.134c.406-.235.815-.462,1.218-.7.152-.09.238-.1.286.1.149.639.368,1.26.464,1.913a.737.737,0,0,1-.282.733c-.51.417-1.063.775-1.6,1.157-.157.112-.25.093-.307-.095a12.427,12.427,0,0,1-.423-1.977" transform="translate(-271.456 -70.616)" fill="#b1b1b1"/>
          <path id="Path_12177" data-name="Path 12177" d="M315.241,144.226c0-.924.012-.929.7-.805.215.039.433.057.651.078a1.2,1.2,0,0,1,1.281,1.163c.1.507.153,1.023.266,1.526.049.221-.021.24-.2.268a2.115,2.115,0,0,1-2.245-.759,2.654,2.654,0,0,1-.446-1.471" transform="translate(-265.198 -120.606)" fill="#b1b1b1"/>
          <path id="Path_12178" data-name="Path 12178" d="M275.842,53.126a1.455,1.455,0,0,1,1.026.5c.309.265.581.574.879.855.131.124.118.207-.023.3-.518.354-1.029.718-1.552,1.063a.647.647,0,0,1-.924-.053c-.45-.391-.87-.818-1.3-1.228-.076-.072-.112-.139-.016-.222a5.963,5.963,0,0,1,1.548-1.152.822.822,0,0,1,.367-.068" transform="translate(-230.394 -44.69)" fill="#b1b1b1"/>
          <path id="Path_12179" data-name="Path 12179" d="M275.2,17.271c-.052.151-.1.3-.156.451-.224.577-.5,1.127-.781,1.679-.092.183-.173.217-.321.049-.362-.411-.735-.812-1.1-1.22a1.2,1.2,0,0,1-.147-1.491c.246-.456.509-.9.752-1.359.083-.156.14-.15.256-.034q.676.678,1.312,1.393c.139.157.123.351.186.532" transform="translate(-229.247 -12.838)" fill="#b1b1b1"/>
          <path id="Path_12180" data-name="Path 12180" d="M277.821,256.422a1.09,1.09,0,0,1-.2.661,5.075,5.075,0,0,1-1.173,1.346c-.087.068-.127.062-.184-.026a12,12,0,0,1-1.034-1.784.985.985,0,0,1,.154-.882,5.788,5.788,0,0,1,1.1-1.369c.063-.059.134-.158.218-.041a6.158,6.158,0,0,1,1.061,1.756.846.846,0,0,1,.053.34" transform="translate(-231.495 -213.906)" fill="#b1b1b1"/>
          <path id="Path_12181" data-name="Path 12181" d="M286.16,276.83a.323.323,0,0,1-.253-.074c-.553-.472-1.1-.945-1.663-1.409-.144-.119-.159-.236-.016-.331a8.488,8.488,0,0,1,1.658-1.048.968.968,0,0,1,1.016.261c.391.354.754.74,1.132,1.109.082.08.126.132,0,.228-.5.394-.99.8-1.517,1.158a.516.516,0,0,1-.362.1" transform="translate(-239.024 -230.43)" fill="#b1b1b1"/>
          <path id="Path_12182" data-name="Path 12182" d="M259.414,272.6a1.369,1.369,0,0,1-.393.915,7.732,7.732,0,0,1-1.157,1.08c-.152.124-.242.1-.3-.085-.235-.73-.514-1.445-.7-2.193a.684.684,0,0,1,.239-.639,11.72,11.72,0,0,1,1.387-1.182c.065-.053.153-.123.211.02a10.809,10.809,0,0,1,.707,1.995.516.516,0,0,1,0,.09" transform="translate(-216.077 -227.497)" fill="#b1b1b1"/>
          <path id="Path_12183" data-name="Path 12183" d="M95.2,309.68a3.743,3.743,0,0,1-1.7-.49c-.065-.032-.129-.075-.1-.159a4.633,4.633,0,0,1,.764-1.672,1.4,1.4,0,0,1,1.35-.374,7.141,7.141,0,0,1,1.465.4c.123.043.178.081.132.233a4.584,4.584,0,0,1-.644,1.4,1.4,1.4,0,0,1-1.264.662" transform="translate(-78.56 -258.229)" fill="#b1b1b1"/>
          <path id="Path_12184" data-name="Path 12184" d="M47.917,35.824a3.221,3.221,0,0,1,1.145-1.961c.1-.1.156-.043.215.03a14.268,14.268,0,0,1,1.017,1.251,1.284,1.284,0,0,1,.053,1.363c-.208.4-.444.779-.661,1.172a2.162,2.162,0,0,1-.3.367.153.153,0,0,1-.233.02,2.414,2.414,0,0,1-1.233-2.242" transform="translate(-40.311 -28.443)" fill="#b1b1b1"/>
          <path id="Path_12185" data-name="Path 12185" d="M8.24,113.685c.04-.562.132-1.12.223-1.678.031-.189.105-.248.3-.184a10.789,10.789,0,0,1,1.523.6,1.1,1.1,0,0,1,.58,1.042,8.356,8.356,0,0,1-.145,1.808c-.048.244-.127.324-.4.208a13.16,13.16,0,0,1-1.441-.646,1.123,1.123,0,0,1-.646-1.151" transform="translate(-6.926 -94.051)" fill="#b1b1b1"/>
          <path id="Path_12186" data-name="Path 12186" d="M2.825,172.54h.509a1.127,1.127,0,0,1,1.236.869c.174.529.305,1.072.464,1.606a.188.188,0,0,1-.147.271,3.337,3.337,0,0,1-2.112-.027,1.219,1.219,0,0,1-.629-.768,4.064,4.064,0,0,1-.268-1.76c.006-.141.06-.2.2-.192.25.006.5,0,.749,0" transform="translate(-1.575 -145.148)" fill="#b1b1b1"/>
          <path id="Path_12187" data-name="Path 12187" d="M44.3,75.718a2.171,2.171,0,0,1-1.639-.749.185.185,0,0,1-.023-.261,7.749,7.749,0,0,1,1.079-1.5.978.978,0,0,1,1.108-.307,7.934,7.934,0,0,1,1.486.764c.079.047.115.1.072.194a3.227,3.227,0,0,1-1.4,1.69,1.3,1.3,0,0,1-.68.17" transform="translate(-35.83 -61.274)" fill="#b1b1b1"/>
          <path id="Path_12188" data-name="Path 12188" d="M16.5,231.427c-.307.039-.585-.255-.821-.583a7.657,7.657,0,0,1-.763-1.419c-.057-.131-.043-.192.1-.244.5-.187,1-.393,1.5-.577a.907.907,0,0,1,1.087.325c.364.5.714,1.007,1.063,1.517.053.078.171.2.005.271a5.453,5.453,0,0,1-2.173.71" transform="translate(-12.518 -192.26)" fill="#b1b1b1"/>
          <path id="Path_12189" data-name="Path 12189" d="M26.778,119.186a5.221,5.221,0,0,1,1.222.123.226.226,0,0,1,.219.26,4.22,4.22,0,0,1-.149,1.211,1.6,1.6,0,0,1-1.347,1.16,6,6,0,0,1-1.608,0c-.219-.018-.238-.17-.184-.324.2-.564.335-1.148.569-1.7a1.085,1.085,0,0,1,1.278-.73" transform="translate(-20.953 -100.248)" fill="#b1b1b1"/>
          <path id="Path_12190" data-name="Path 12190" d="M26.878,168.941a1.691,1.691,0,0,1-1.212,1.858,2.708,2.708,0,0,1-1.178.287c-.206-.01-.316-.1-.307-.315a8.9,8.9,0,0,1,.225-1.892,1.6,1.6,0,0,1,1.43-1.213c.029-.005.06,0,.09-.005.89-.13.682-.107.881.648a1.509,1.509,0,0,1,.07.633" transform="translate(-20.343 -140.994)" fill="#b1b1b1"/>
          <path id="Path_12191" data-name="Path 12191" d="M105.992,286.207a2.816,2.816,0,0,1-.325,1.309c-.078.147-.163.225-.35.152a4.775,4.775,0,0,1-1.706-1.11,1.4,1.4,0,0,1-.19-1.387c.092-.4.237-.779.341-1.173.057-.218.161-.234.34-.144s.345.155.52.225a2.19,2.19,0,0,1,1.37,2.128" transform="translate(-86.925 -238.75)" fill="#b1b1b1"/>
          <path id="Path_12192" data-name="Path 12192" d="M70.842,295.178a2.446,2.446,0,0,1-1.22-.466c-.229-.141-.445-.305-.675-.444-.17-.1-.187-.21-.073-.362.3-.4.582-.811.893-1.2a1.03,1.03,0,0,1,1.306-.351,4.619,4.619,0,0,1,1.492.8c.115.107.137.169.046.293a15.066,15.066,0,0,1-.949,1.231,1.45,1.45,0,0,1-.82.5" transform="translate(-57.879 -245.859)" fill="#b1b1b1"/>
          <path id="Path_12193" data-name="Path 12193" d="M9.869,204.2a1.851,1.851,0,0,1-1.935-1.652c-.166-.934-.161-.748.627-.994a4.18,4.18,0,0,1,1.059-.148.942.942,0,0,1,.9.531c.259.483.51.972.738,1.47.158.346.068.5-.3.611a3.253,3.253,0,0,1-1.089.183" transform="translate(-6.602 -169.432)" fill="#b1b1b1"/>
          <path id="Path_12194" data-name="Path 12194" d="M32.1,255.576a1.244,1.244,0,0,1-.751-.318,7.393,7.393,0,0,1-1.1-1.34c-.088-.128-.081-.188.06-.274.434-.264.852-.554,1.283-.822a.927.927,0,0,1,1.233.1c.429.4.818.846,1.229,1.267a.209.209,0,0,1-.013.318,4.492,4.492,0,0,1-1.946,1.073" transform="translate(-25.4 -212.527)" fill="#b1b1b1"/>
          <path id="Path_12195" data-name="Path 12195" d="M28.826,193.086a1.3,1.3,0,0,1,.651-1.183,8.769,8.769,0,0,1,1.325-.619c.18-.076.244-.015.285.157a11.817,11.817,0,0,1,.341,1.662A1.181,1.181,0,0,1,31,194.17a12.055,12.055,0,0,1-1.565.991c-.146.086-.209.008-.239-.107a11.234,11.234,0,0,1-.374-1.967" transform="translate(-24.25 -160.891)" fill="#b1b1b1"/>
          <path id="Path_12196" data-name="Path 12196" d="M76.827,39.408a1.384,1.384,0,0,1-.967-.44c-.343-.319-.667-.659-1-.99-.124-.123-.174-.246.006-.367.38-.256.748-.531,1.139-.769A1.169,1.169,0,0,1,77.745,37a8.757,8.757,0,0,1,.94,1.081c.089.113.082.186-.033.267a14.293,14.293,0,0,1-1.358.922.9.9,0,0,1-.467.138" transform="translate(-62.884 -30.729)" fill="#b1b1b1"/>
          <path id="Path_12197" data-name="Path 12197" d="M33.75,98.295a10.093,10.093,0,0,1-1.813-.414c-.109-.031-.108-.084-.082-.177a5.394,5.394,0,0,1,.853-1.723,1.181,1.181,0,0,1,1.393-.435c.394.1.789.19,1.184.286.095.023.216.027.164.181a5.452,5.452,0,0,1-.914,1.957,1.091,1.091,0,0,1-.784.325" transform="translate(-26.786 -80.326)" fill="#b1b1b1"/>
          <path id="Path_12198" data-name="Path 12198" d="M97.4,24.77a1.421,1.421,0,0,1,1.326.845,5.813,5.813,0,0,1,.369.849c.046.118.029.181-.08.242a9.281,9.281,0,0,1-1.28.646,1.071,1.071,0,0,1-1.448-.391,12.1,12.1,0,0,1-.952-1.411c-.118-.2-.08-.289.14-.36A6.031,6.031,0,0,1,97.4,24.77" transform="translate(-80.145 -20.835)" fill="#b1b1b1"/>
          <path id="Path_12199" data-name="Path 12199" d="M114.362,5.864a14.789,14.789,0,0,1-1.989-.37c-.155-.032-.16-.1-.111-.233a8.759,8.759,0,0,1,.732-1.538,1.22,1.22,0,0,1,1.523-.621,10.009,10.009,0,0,1,1.24.433c.153.06.2.135.122.293a10.845,10.845,0,0,1-.777,1.517c-.214.319-.489.56-.741.52" transform="translate(-94.418 -2.556)" fill="#b1b1b1"/>
          <path id="Path_12200" data-name="Path 12200" d="M32.589,59.525a1.386,1.386,0,0,1-.158.635c-.181.453-.378.9-.561,1.351-.075.186-.159.246-.356.13a4.2,4.2,0,0,1-1.537-1.671.66.66,0,0,1-.01-.606c.256-.573.516-1.143.762-1.72.079-.185.153-.192.295-.065.4.358.814.7,1.211,1.063a1.092,1.092,0,0,1,.354.882" transform="translate(-25.152 -48.366)" fill="#b1b1b1"/>
          <path id="Path_12201" data-name="Path 12201" d="M91.8,1.87a1.687,1.687,0,0,1-.487,1.012,8.051,8.051,0,0,1-1.22,1.141c-.149.114-.208.085-.281-.071a9.922,9.922,0,0,1-.573-1.5A1.462,1.462,0,0,1,89.744.793,7.094,7.094,0,0,1,90.957.036c.112-.06.191-.047.251.056A3.265,3.265,0,0,1,91.8,1.87" transform="translate(-75.009 0)" fill="#b1b1b1"/>
          <path id="Path_12202" data-name="Path 12202" d="M6.613,144.551c0,.664.11.712-.517.618a5.54,5.54,0,0,1-1.331-.3,1.415,1.415,0,0,1-.848-1.148,7.7,7.7,0,0,1,0-1.64c0-.163.1-.181.219-.159a12.446,12.446,0,0,1,1.514.317,1.208,1.208,0,0,1,.832,1.127c.056.444.1.89.13,1.188" transform="translate(-3.254 -119.383)" fill="#b1b1b1"/>
          <path id="Path_12203" data-name="Path 12203" d="M37.7,216.175a1.428,1.428,0,0,1,.626-1.286,6.263,6.263,0,0,1,.995-.6c.118-.063.181-.037.225.082a13.045,13.045,0,0,1,.689,1.777A1.073,1.073,0,0,1,39.9,217.2a13.463,13.463,0,0,1-1.4,1.119c-.16.113-.243.111-.309-.1a8.013,8.013,0,0,1-.495-2.047" transform="translate(-31.711 -180.241)" fill="#b1b1b1"/>
          <path id="Path_12204" data-name="Path 12204" d="M19.634,85.891a19.39,19.39,0,0,1-.436,1.9c-.048.174-.168.2-.321.093q-.773-.562-1.549-1.12a.786.786,0,0,1-.307-.9c.145-.589.307-1.173.443-1.764.051-.221.127-.227.3-.123.4.241.811.466,1.217.7a1.293,1.293,0,0,1,.651,1.208" transform="translate(-14.291 -70.598)" fill="#b1b1b1"/>
          <path id="Path_12205" data-name="Path 12205" d="M51.2,234.791c.364.581.752,1.111,1.05,1.7a1.037,1.037,0,0,1-.08,1.13A12.54,12.54,0,0,1,51.032,239c-.131.139-.243.16-.368,0a3.231,3.231,0,0,1-.873-2.4,1.116,1.116,0,0,1,.231-.479,9.088,9.088,0,0,1,1.177-1.334" transform="translate(-41.875 -197.519)" fill="#b1b1b1"/>
          <path id="Path_12206" data-name="Path 12206" d="M66.825,17.2A.843.843,0,0,1,67,16.674c.4-.5.871-.931,1.3-1.4.073-.081.147-.186.241-.011.288.534.585,1.064.868,1.6a1.046,1.046,0,0,1-.16,1.2c-.374.465-.795.892-1.195,1.336-.1.106-.181.16-.269-.013a20.351,20.351,0,0,1-.917-2.011,1.032,1.032,0,0,1-.04-.171" transform="translate(-56.217 -12.756)" fill="#b1b1b1"/>
          <path id="Path_12207" data-name="Path 12207" d="M25.535,144.073a2.437,2.437,0,0,1-.654,1.917,2.261,2.261,0,0,1-2.124.462c-.134-.023-.113-.127-.1-.209.118-.633.229-1.268.368-1.9.126-.568.571-.746,1.086-.812.374-.048.748-.088,1.12-.143.24-.035.327.058.3.293a3.87,3.87,0,0,0,0,.389" transform="translate(-19.053 -120.622)" fill="#b1b1b1"/>
          <path id="Path_12208" data-name="Path 12208" d="M49,276.914a.638.638,0,0,1-.417-.12c-.494-.37-.982-.748-1.475-1.119-.135-.1-.11-.18,0-.285.381-.366.735-.76,1.144-1.1a1.058,1.058,0,0,1,1.277-.123c.458.28.9.593,1.34.9.172.118.2.23.008.385-.527.425-1.035.873-1.558,1.3-.095.078-.188.192-.317.159" transform="translate(-39.556 -230.512)" fill="#b1b1b1"/>
          <path id="Path_12209" data-name="Path 12209" d="M59.18,53.121a.928.928,0,0,1,.612.168,7.159,7.159,0,0,1,1.266,1c.113.107.116.185,0,.293-.422.4-.8.837-1.259,1.194a.642.642,0,0,1-.9.073c-.552-.357-1.089-.738-1.632-1.11-.064-.044-.155-.09-.053-.18a10.656,10.656,0,0,1,1.391-1.268.785.785,0,0,1,.571-.168" transform="translate(-48.096 -44.679)" fill="#b1b1b1"/>
          <path id="Path_12210" data-name="Path 12210" d="M67.045,256.456a.7.7,0,0,1-.1.453c-.278.529-.6,1.03-.927,1.531-.042.065-.073.185-.2.08a5.014,5.014,0,0,1-1.235-1.476,1.272,1.272,0,0,1,0-1.153,7.9,7.9,0,0,1,.943-1.449c.05-.068.1-.13.189-.042a4.372,4.372,0,0,1,1.292,1.758.749.749,0,0,1,.034.144,1.365,1.365,0,0,1,0,.153" transform="translate(-54.218 -213.979)" fill="#b1b1b1"/>
          <path id="Path_12211" data-name="Path 12211" d="M85.747,272.029a2.592,2.592,0,0,1-.187.791c-.175.549-.363,1.095-.547,1.641-.029.087-.062.189-.18.09A5.327,5.327,0,0,1,83.27,272.9a1.253,1.253,0,0,1,.061-1.036c.172-.477.366-.946.546-1.421.04-.107.057-.192.194-.081a17.311,17.311,0,0,1,1.4,1.165.776.776,0,0,1,.278.506" transform="translate(-69.974 -227.395)" fill="#b1b1b1"/>
          <path id="Path_12212" data-name="Path 12212" d="M96.592,57.352q0,7.166.007,14.331c0,.288-.089.339-.352.339q-4.539-.013-9.077-.005c-.04,0-.08,0-.12,0-.057,0-.137.016-.147-.062-.012-.1.079-.092.145-.1.646-.117,1.292-.235,1.939-.35,1.909-.339,3.818-.682,5.73-1.009.212-.036.255-.122.254-.311q-.012-2.024-.011-4.047,0-12.7,0-25.394c0-.492,0-.5.456-.328,3.011,1.117,5.989,2.319,8.981,3.487q2.932,1.145,5.861,2.3a1.639,1.639,0,0,1,.5.271.684.684,0,0,1,.252.545c.041,2.8.029,5.6.031,8.394,0,.344,0,.345-.333.227-.253-.09-.5-.188-.758-.273a.74.74,0,0,1-.525-.8c0-1.969,0-3.937,0-5.906,0-.09,0-.18,0-.27,0-.743-.026-.781-.714-1.049L97.029,42.785c-.435-.17-.437-.169-.437.3q0,7.135,0,14.271" transform="translate(-73.107 -33.912)" fill="#23418f"/>
          <path id="Path_12213" data-name="Path 12213" d="M163.639,97.395q0,6.581-.005,13.162c0,.243.047.328.311.361,1.9.236,3.779.563,5.667.853,1.357.208,2.721.376,4.081.562.073.01.186.018.186.1s-.144.072-.22.072q-3.356.005-6.711,0c-1.508,0-3.016-.008-4.524.007-.291,0-.38-.054-.38-.368q.015-12.742.008-25.484c0-.444,0-.443-.409-.283l-5.171,2.013c-.288.112-.346.074-.373-.235q-.021-.239-.038-.478a.941.941,0,0,1,.673-1.127c.687-.289,1.382-.557,2.076-.827,1.5-.583,3.006-1.159,4.507-1.746.253-.1.327-.073.327.227q-.015,6.6-.007,13.192" transform="translate(-131.283 -70.601)" fill="#23418f"/>
          <path id="Path_12214" data-name="Path 12214" d="M105.063,120.522c-.572-.207-1.095-.394-1.616-.587-.351-.129-.35-.133-.35.255q0,10.03,0,20.059c0,.41,0,.41-.41.409H90.372c-.407,0-.461-.01-.461-.083,0-.121.188-.138.283-.151.869-.114,1.741-.209,2.612-.313,1.652-.2,3.3-.4,4.956-.594,1.108-.131,2.216-.261,3.326-.373.284-.029.366-.122.365-.417q-.015-10.509-.014-21.019c0-.294.078-.3.314-.206.913.369,1.826.739,2.75,1.077a.793.793,0,0,1,.557.792c.017.368,0,.738,0,1.151" transform="translate(-75.638 -98.803)" fill="#23418f"/>
          <path id="Path_12215" data-name="Path 12215" d="M89.123,129.672s-.133,0-.2,0q-2.125,0-4.256,0c0-.047.114-.13.181-.167.772-.435,1.544-.872,2.324-1.293a.388.388,0,0,0,.238-.392c.045-4.215.134-8.43.113-12.646a.4.4,0,0,1,.311-.442q1.728-.657,3.443-1.353c.229-.093.325-.038.375.184.035.155.085.307.118.462a.985.985,0,0,1-.531,1.1,6.4,6.4,0,0,1-1.069.454c-.563.208-1.012.514-1.043,1.172,0,.137-.006.178-.006.263q-.005,6.073,0,12.147c0,.158,0,.511,0,.511" transform="translate(-71.226 -95.342)" fill="#23418f"/>
          <path id="Path_12216" data-name="Path 12216" d="M220.463,148.25l2.861,1.435c-.053.054-.2.048-.28.048-1.318,0-2.636,0-3.953.008-.244,0-.316-.054-.315-.308.011-2.478.008-4.955.009-7.433,0-.5-.077-.613-.55-.8L213,139.191a1.032,1.032,0,0,1-.77-1.344c.008-.049.016-.1.019-.148.042-.551.043-.554.548-.358q3.518,1.363,7.035,2.727a.765.765,0,0,1,.556.6.96.96,0,0,0-.014.268q0,3.5,0,7c0,.1-.019.253.085.312" transform="translate(-178.513 -115.439)" fill="#23418f"/>
          <path id="Path_12217" data-name="Path 12217" d="M229.006,169.609c0-1.939,0-3.878,0-5.816,0-.252.052-.321.294-.212a6.453,6.453,0,0,0,.644.236.846.846,0,0,1,.618.883c0,.25.007.5.007.749,0,2.778.011,5.556.005,8.335,0,.243.085.316.3.362q3.226.675,6.449,1.368c.055.012.136.019.142.073.011.1-.082.1-.148.1-.15.006-5.5,0-8.029.012-.252,0-.287-.086-.286-.3.007-1.929,0-3.858,0-5.786" transform="translate(-192.648 -137.571)" fill="#23418f"/>
        </g>
      </g>
    </g>
    <text id="شركة_نماء_الخليج_للتنمية_العمرانية" data-name="شركة نماء الخليج للتنمية العمرانية" transform="translate(-108.673 37.04)" fill="#090a0a" font-size="10" font-family="DroidArabicNaskh-Bold, Droid Arabic Naskh" font-weight="700"><tspan x="0" y="0">شركة نماء الخليج للتنمية العمرانية</tspan></text>
    <text id="NAMAA_ALKHALEEJ_FOR_URBAN_DEVELOPMENT" data-name="NAMAA ALKHALEEJ FOR URBAN DEVELOPMENT" transform="translate(-110.673 53.958)" fill="#818181" font-size="7" font-family="SegoeUI, Segoe UI"><tspan x="0" y="0">NAMAA ALKHALEEJ FOR URBAN DEVELOPMENT</tspan></text>
  </g>
</svg>
