<svg id="Group_40847" data-name="Group 40847" xmlns="http://www.w3.org/2000/svg" width="242.823" height="275.652" viewBox="0 0 242.823 275.652">
  <g id="Group_40867" data-name="Group 40867" transform="translate(0)">
    <text id="شركة_نماء_الخليج_للتنمية_العمرانية" data-name="شركة نماء الخليج للتنمية العمرانية" transform="translate(0 238.588)" fill="#090a0a" font-size="16" font-family="DroidArabicNaskh-Bold, Droid Arabic Naskh" font-weight="700"><tspan x="0" y="0">شركة نماء الخليج للتنمية العمرانية</tspan></text>
    <text id="NAMAA_ALKHALEEJ_FOR_URBAN_DEVELOPMENT" data-name="NAMAA ALKHALEEJ FOR URBAN DEVELOPMENT" transform="translate(6.823 272.652)" fill="#818181" font-size="11" font-family="SegoeUI, Segoe UI"><tspan x="0" y="0">NAMAA ALKHALEEJ FOR URBAN DEVELOPMENT</tspan></text>
    <g id="Group_40868" data-name="Group 40868" transform="translate(11.372)">
      <g id="Group_40904" data-name="Group 40904">
        <path id="Path_12154" data-name="Path 12154" d="M247.005,317.982c-2.672.17-4.348-1.5-5.677-3.65a19,19,0,0,1-1.871-4.45c-.14-.452-.353-.957.363-1.175,2.456-.745,4.858-1.677,7.488-1.712a5.237,5.237,0,0,1,4.741,2.592,23.315,23.315,0,0,1,2.25,5.329.929.929,0,0,1-.586,1.269,15.022,15.022,0,0,1-6.708,1.8" transform="translate(-85.568 -109.767)" fill="#b1b1b1"/>
        <path id="Path_12155" data-name="Path 12155" d="M302.564,43.136c-.2,3.725-2.331,6.123-5.2,8.044-.409.274-.636.054-.935-.2a8.478,8.478,0,0,1-1.74-2.6c-.671-1.2-1.358-2.387-2.031-3.584a5.069,5.069,0,0,1,.3-5.708,41.073,41.073,0,0,1,3.933-4.753c.313-.332.567-.542.994-.133,2.579,2.466,4.523,5.255,4.685,8.929" transform="translate(-104.375 -12.15)" fill="#b1b1b1"/>
        <path id="Path_12156" data-name="Path 12156" d="M331.422,119.846c-.06-1.9-.021-3.768,1.694-5.046a22.6,22.6,0,0,1,5.035-2.313c.185-.078.378-.138.568-.2,2.258-.779,2.337-.725,2.664,1.679.222,1.631.482,3.257.68,4.89a4.858,4.858,0,0,1-2.505,5.2,51.917,51.917,0,0,1-6.511,2.894c-.532.217-.739.048-.914-.533-.646-2.156-.5-4.381-.712-6.571" transform="translate(-118.496 -39.987)" fill="#b1b1b1"/>
        <path id="Path_12157" data-name="Path 12157" d="M298.3,84.494c-2.644.109-4.5-1.532-6.157-3.481a16.869,16.869,0,0,1-2.283-3.837.72.72,0,0,1,.333-1.09,25.983,25.983,0,0,1,6.383-3.112,3.414,3.414,0,0,1,3.366.81,26.212,26.212,0,0,1,4.933,6.531.894.894,0,0,1-.12,1.278c-1.777,1.679-3.726,2.953-6.457,2.9" transform="translate(-103.595 -26.041)" fill="#b1b1b1"/>
        <path id="Path_12158" data-name="Path 12158" d="M343.347,172.54c.97,0,1.939.026,2.908-.01.6-.022.887.175.932.8.238,3.346-.233,6.515-2.306,9.275a4.389,4.389,0,0,1-3.326,1.507,17.444,17.444,0,0,1-5.774-.208c-.957-.232-1.575-.594-1.136-1.855.671-1.933,1.032-3.974,1.7-5.911.92-2.685,2.337-3.59,5.19-3.595q.908,0,1.818,0" transform="translate(-119.601 -61.688)" fill="#b1b1b1"/>
        <path id="Path_12159" data-name="Path 12159" d="M319.562,130.631a11.336,11.336,0,0,1-3.538-.326c-3.224-.721-5.058-2.983-5.443-6.572-.1-.96-.143-1.927-.245-2.886-.078-.739.314-1.005.961-1.1a34.229,34.229,0,0,1,6.005-.522,4.022,4.022,0,0,1,3.714,2.242,35.837,35.837,0,0,1,2.142,5.892c.207.607.373,1.228.563,1.842.24.773-.073,1.2-.847,1.211a22.56,22.56,0,0,1-3.313.222" transform="translate(-110.959 -42.625)" fill="#b1b1b1"/>
        <path id="Path_12160" data-name="Path 12160" d="M325.349,240.149c-2.974-.186-5.506-1.655-8.131-2.858-.41-.188-.371-.418-.132-.754,1.591-2.229,2.994-4.6,4.783-6.677A3.47,3.47,0,0,1,326,228.727c1.988.774,3.962,1.586,5.97,2.306.669.24.821.534.528,1.134a33.714,33.714,0,0,1-3.42,6.112,4.172,4.172,0,0,1-3.732,1.87" transform="translate(-113.311 -81.683)" fill="#b1b1b1"/>
        <path id="Path_12161" data-name="Path 12161" d="M332.324,212.731a14.8,14.8,0,0,1-4.5-.752c-1.339-.365-1.763-1.057-1.193-2.31.969-2.129,1.98-4.251,3.155-6.27a4.108,4.108,0,0,1,4.245-1.923,22.083,22.083,0,0,1,5.767,1.184c.367.131.71.2.774.754.373,3.237-1.97,7.452-4.944,8.763a7.327,7.327,0,0,1-3.3.555" transform="translate(-116.699 -72.029)" fill="#b1b1b1"/>
        <path id="Path_12162" data-name="Path 12162" d="M309.763,264.518a8.61,8.61,0,0,1-2.48-.682,27.337,27.337,0,0,1-5.247-3.206c-.673-.509-.953-1.106-.236-1.911a67.351,67.351,0,0,1,4.9-5.016,3.482,3.482,0,0,1,4.353-.575c1.975,1.167,3.884,2.446,5.831,3.662.394.246.471.5.2.882a27.523,27.523,0,0,1-4.733,5.777,4.468,4.468,0,0,1-2.593,1.07" transform="translate(-107.759 -90.319)" fill="#b1b1b1"/>
        <path id="Path_12163" data-name="Path 12163" d="M271.255,292.275a3.931,3.931,0,0,1,2.922,1.232c1.7,1.734,2.91,3.851,4.431,5.727a.5.5,0,0,1-.1.818,22.459,22.459,0,0,1-6.761,3.883,3.8,3.8,0,0,1-3.758-1.069,33.842,33.842,0,0,1-4.849-6c-.323-.447-.022-.645.267-.88a12.777,12.777,0,0,1,3.656-2.281c1.388-.5,2.634-1.413,4.19-1.433" transform="translate(-94.038 -104.503)" fill="#b1b1b1"/>
        <path id="Path_12164" data-name="Path 12164" d="M325.889,178.771c0,.283,0,.565,0,.848.038,1.923-.32,2.285-2.24,2a15.535,15.535,0,0,1-6.03-2.36,5.445,5.445,0,0,1-2.384-4.184,16.084,16.084,0,0,1,.652-6.813c.1-.3.092-.592.519-.7,2.463-.625,6.846,1.195,7.995,3.453a16.621,16.621,0,0,1,1.466,7.149c.007.2,0,.4,0,.606Z" transform="translate(-112.675 -59.868)" fill="#b1b1b1"/>
        <path id="Path_12165" data-name="Path 12165" d="M236.273,294.035c0-4.858,2.124-7.8,6.3-9.425,2.279-.889,2.232-1.012,2.98,1.267a40.743,40.743,0,0,1,1.252,4.782,4.894,4.894,0,0,1-1.816,5.167,21.433,21.433,0,0,1-5.806,3.617c-.879.325-1.361.125-1.777-.761a9.824,9.824,0,0,1-1.132-4.647" transform="translate(-84.475 -101.55)" fill="#b1b1b1"/>
        <path id="Path_12166" data-name="Path 12166" d="M244.611,35.7a8.837,8.837,0,0,1-3.338-.951c-.917-.409-1.8-.9-2.676-1.393-2.114-1.2-2.108-1.209-1.1-3.472,2.138-4.8,4.62-6.009,9.723-4.737a46.346,46.346,0,0,1,4.708,1.489c.452.166.729.3.4.84a35.936,35.936,0,0,1-5.122,7.15,3.33,3.33,0,0,1-2.6,1.075" transform="translate(-84.683 -8.823)" fill="#b1b1b1"/>
        <path id="Path_12167" data-name="Path 12167" d="M264.414,48.175a5.036,5.036,0,0,1-3.1-1.077c-1.485-.966-2.9-2.035-4.352-3.055-.595-.418-.766-.8-.213-1.464,1.164-1.392,2.3-2.8,3.6-4.075,2.347-2.3,4-2.552,6.809-.878,1.726,1.03,3.356,2.22,5.03,3.337a.651.651,0,0,1,.126,1.117,36.17,36.17,0,0,1-5.713,5.364,3.313,3.313,0,0,1-2.188.73" transform="translate(-91.682 -13.067)" fill="#b1b1b1"/>
        <path id="Path_12168" data-name="Path 12168" d="M227.723,14.4c-2.024.256-3.06-1.139-3.939-2.531a42.13,42.13,0,0,1-2.8-5.636c-.234-.533-.279-.844.353-1.108a22.818,22.818,0,0,1,6.786-2.076c2.083-.178,3.476,1.056,4.518,2.714a37.657,37.657,0,0,1,3.012,6.33c.164.416.271.7-.371.847a57.557,57.557,0,0,1-7.56,1.459" transform="translate(-78.958 -1.083)" fill="#b1b1b1"/>
        <path id="Path_12169" data-name="Path 12169" d="M321.512,198.733a43.666,43.666,0,0,1-1.51,7.912c-.157.6-.483.625-.973.336a46.172,46.172,0,0,1-6.24-3.927,4.986,4.986,0,0,1-1.706-4.688,48.728,48.728,0,0,1,1.424-6.721c.1-.371.2-.646.629-.465,2.291.975,4.716,1.676,6.656,3.361a4.593,4.593,0,0,1,1.72,4.194" transform="translate(-111.21 -68.336)" fill="#b1b1b1"/>
        <path id="Path_12170" data-name="Path 12170" d="M308.7,106.833a4.581,4.581,0,0,1-3.977-2.018,29.587,29.587,0,0,1-3.028-7.1c-.106-.314-.139-.667.314-.765a67.71,67.71,0,0,1,7.191-1.513,3.125,3.125,0,0,1,2.661,1.146,14.283,14.283,0,0,1,3.854,6.588c.153.622.922,1.278.363,1.853-.393.4-1.184.423-1.8.6a30.868,30.868,0,0,1-5.577,1.207" transform="translate(-107.846 -34.118)" fill="#b1b1b1"/>
        <path id="Path_12171" data-name="Path 12171" d="M261.078,8.066a17.14,17.14,0,0,1-1.952,6.674c-1,2.2-1.045,2.217-2.923.682a37.679,37.679,0,0,1-2.944-2.694c-3.166-3.209-3.6-6.333-1.488-10.3,1.382-2.6,1.384-2.6,3.957-1.162a16.79,16.79,0,0,1,3.47,2.4,5.227,5.227,0,0,1,1.879,4.4" transform="translate(-89.557 -0.106)" fill="#b1b1b1"/>
        <path id="Path_12172" data-name="Path 12172" d="M345.945,146.141a22.831,22.831,0,0,1-.019,2.9,6.033,6.033,0,0,1-5.18,5.448c-1.525.333-3.077.543-4.62.791-.87.14-1.4-.1-1.275-1.139a66.285,66.285,0,0,1,1.033-7.992,4.044,4.044,0,0,1,2.763-2.819,40.183,40.183,0,0,1,6.338-1.373c.45-.083.7.041.842.577a15.08,15.08,0,0,1,.118,3.611" transform="translate(-119.721 -50.747)" fill="#b1b1b1"/>
        <path id="Path_12173" data-name="Path 12173" d="M312.8,221.986a35.769,35.769,0,0,1-2.2,8.645c-.192.581-.506.5-.911.212a44.014,44.014,0,0,1-6.1-4.954,4.511,4.511,0,0,1-.9-4.969c.766-2.081,1.7-4.1,2.552-6.15.173-.414.352-.719.889-.423,1.873,1.033,3.823,1.952,5.263,3.612a5.988,5.988,0,0,1,1.4,4.026" transform="translate(-108.098 -76.599)" fill="#b1b1b1"/>
        <path id="Path_12174" data-name="Path 12174" d="M320.227,66.372a2.729,2.729,0,0,1-.4,1.4,18.61,18.61,0,0,1-5.951,6.427c-.873.555-1.248.332-1.595-.538-.777-1.95-1.662-3.857-2.406-5.818-1.027-2.707-.538-4.457,1.649-6.376,1.4-1.225,2.8-2.439,4.194-3.668.4-.358.74-.675,1.085.077,1.127,2.458,2.292,4.9,3.237,7.438a5.791,5.791,0,0,1,.187,1.061" transform="translate(-110.613 -20.528)" fill="#b1b1b1"/>
        <path id="Path_12175" data-name="Path 12175" d="M300.64,243.62a15.276,15.276,0,0,1-3.659,8.388.829.829,0,0,1-1.43.033,45.424,45.424,0,0,1-4.913-6.131,3.759,3.759,0,0,1-.128-4.031c1.248-2.167,2.61-4.269,3.927-6.4.261-.421.523-.538.931-.1a45,45,0,0,1,4.4,5.145,4.72,4.72,0,0,1,.871,3.1" transform="translate(-103.685 -84.061)" fill="#b1b1b1"/>
        <path id="Path_12176" data-name="Path 12176" d="M322.692,91.617a4.655,4.655,0,0,1,2.6-4.589c1.642-.95,3.3-1.871,4.93-2.838.613-.364.964-.405,1.156.421.6,2.586,1.491,5.1,1.878,7.74a2.984,2.984,0,0,1-1.142,2.966c-2.065,1.689-4.3,3.136-6.468,4.683-.635.453-1.012.378-1.241-.384a50.277,50.277,0,0,1-1.71-8" transform="translate(-115.376 -30.014)" fill="#b1b1b1"/>
        <path id="Path_12177" data-name="Path 12177" d="M315.241,146.852c.009-3.74.048-3.759,2.814-3.259.869.157,1.754.231,2.633.316,3.278.317,4.563,1.45,5.183,4.705.391,2.053.621,4.139,1.076,6.177.2.894-.085.97-.815,1.086-3.58.567-6.807.057-9.085-3.071a10.74,10.74,0,0,1-1.806-5.954" transform="translate(-112.716 -51.26)" fill="#b1b1b1"/>
        <path id="Path_12178" data-name="Path 12178" d="M281.852,53.132c1.873-.064,3.009,1.052,4.152,2.033,1.252,1.074,2.353,2.325,3.557,3.458.532.5.476.836-.092,1.224-2.1,1.431-4.164,2.9-6.28,4.3a2.619,2.619,0,0,1-3.741-.216c-1.823-1.583-3.521-3.309-5.279-4.968-.307-.29-.455-.561-.066-.9,1.974-1.708,3.784-3.635,6.265-4.664a3.325,3.325,0,0,1,1.483-.274" transform="translate(-97.923 -18.994)" fill="#b1b1b1"/>
        <path id="Path_12179" data-name="Path 12179" d="M283.419,23.4c-.209.611-.4,1.228-.63,1.827-.908,2.333-2.039,4.563-3.162,6.8-.373.742-.7.877-1.3.2-1.464-1.665-2.976-3.287-4.455-4.939a4.868,4.868,0,0,1-.6-6.034c.994-1.845,2.06-3.651,3.045-5.5.336-.631.567-.608,1.036-.137q2.735,2.744,5.308,5.637c.563.633.5,1.42.752,2.152" transform="translate(-97.436 -5.457)" fill="#b1b1b1"/>
        <path id="Path_12180" data-name="Path 12180" d="M285.875,262.976a4.411,4.411,0,0,1-.8,2.673,20.543,20.543,0,0,1-4.748,5.446c-.353.273-.514.25-.745-.107a48.5,48.5,0,0,1-4.185-7.218,3.984,3.984,0,0,1,.622-3.57,23.436,23.436,0,0,1,4.467-5.542c.256-.238.543-.64.881-.165,1.607,2.262,3.48,4.364,4.294,7.107a3.428,3.428,0,0,1,.215,1.377" transform="translate(-98.391 -90.915)" fill="#b1b1b1"/>
        <path id="Path_12181" data-name="Path 12181" d="M292.351,285.72a1.309,1.309,0,0,1-1.025-.3c-2.236-1.909-4.466-3.826-6.728-5.7-.583-.484-.643-.955-.064-1.341,2.2-1.467,4.191-3.3,6.708-4.24a3.918,3.918,0,0,1,4.114,1.057c1.583,1.435,3.053,2.994,4.582,4.489.331.324.508.536.015.924-2.024,1.593-4.005,3.239-6.138,4.687a2.089,2.089,0,0,1-1.464.424" transform="translate(-101.591 -97.938)" fill="#b1b1b1"/>
        <path id="Path_12182" data-name="Path 12182" d="M267.221,279.2a5.539,5.539,0,0,1-1.59,3.7,31.3,31.3,0,0,1-4.683,4.369c-.616.5-.978.4-1.217-.344-.95-2.954-2.08-5.849-2.815-8.873a2.77,2.77,0,0,1,.969-2.587,47.421,47.421,0,0,1,5.613-4.784c.264-.214.621-.5.855.079a43.751,43.751,0,0,1,2.863,8.074,2.1,2.1,0,0,1,0,.363" transform="translate(-91.838 -96.692)" fill="#b1b1b1"/>
        <path id="Path_12183" data-name="Path 12183" d="M100.713,317.975a15.145,15.145,0,0,1-6.891-1.983c-.265-.129-.523-.3-.41-.644.78-2.37,1.41-4.812,3.093-6.766,1.479-1.718,3.471-1.765,5.465-1.513a28.891,28.891,0,0,1,5.929,1.6c.5.176.721.329.536.944a18.55,18.55,0,0,1-2.605,5.682,5.644,5.644,0,0,1-5.117,2.678" transform="translate(-33.39 -109.753)" fill="#b1b1b1"/>
        <path id="Path_12184" data-name="Path 12184" d="M47.918,41.963c.073-2.808,2.183-5.456,4.634-7.936.4-.4.631-.175.871.119a57.749,57.749,0,0,1,4.115,5.064,5.2,5.2,0,0,1,.213,5.514c-.844,1.605-1.8,3.152-2.673,4.743a8.75,8.75,0,0,1-1.226,1.487.619.619,0,0,1-.942.081c-2.927-1.945-5.05-4.378-4.992-9.072" transform="translate(-17.133 -12.089)" fill="#b1b1b1"/>
        <path id="Path_12185" data-name="Path 12185" d="M8.262,119.435c.161-2.276.535-4.534.9-6.792.125-.765.426-1,1.23-.744a43.671,43.671,0,0,1,6.166,2.434,4.458,4.458,0,0,1,2.346,4.218,33.818,33.818,0,0,1-.585,7.316c-.195.989-.515,1.313-1.613.841a53.268,53.268,0,0,1-5.831-2.615,4.545,4.545,0,0,1-2.615-4.658" transform="translate(-2.944 -39.974)" fill="#b1b1b1"/>
        <path id="Path_12186" data-name="Path 12186" d="M5.729,172.544c.687,0,1.374,0,2.061,0,2.691.007,4.166.98,5,3.517.7,2.141,1.236,4.336,1.877,6.5a.762.762,0,0,1-.593,1.1,13.506,13.506,0,0,1-8.548-.11c-1.369-.5-2.015-1.829-2.547-3.107a16.444,16.444,0,0,1-1.084-7.122c.024-.569.243-.791.8-.778,1.01.022,2.02.006,3.03.006" transform="translate(-0.669 -61.692)" fill="#b1b1b1"/>
        <path id="Path_12187" data-name="Path 12187" d="M49.49,84.5a8.785,8.785,0,0,1-6.631-3.033.748.748,0,0,1-.093-1.058,31.36,31.36,0,0,1,4.365-6.075,3.958,3.958,0,0,1,4.484-1.243,32.1,32.1,0,0,1,6.014,3.091c.321.191.466.4.29.786-1.281,2.789-2.795,5.378-5.678,6.841a5.269,5.269,0,0,1-2.751.69" transform="translate(-15.228 -26.042)" fill="#b1b1b1"/>
        <path id="Path_12188" data-name="Path 12188" d="M21.417,240.226c-1.241.159-2.367-1.03-3.323-2.36a30.988,30.988,0,0,1-3.086-5.741c-.231-.529-.174-.777.4-.989,2.038-.756,4.047-1.591,6.088-2.337a3.672,3.672,0,0,1,4.4,1.317c1.473,2.017,2.888,4.077,4.3,6.138.215.314.693.791.021,1.1-2.623,1.2-5.141,2.712-8.8,2.874" transform="translate(-5.32 -81.715)" fill="#b1b1b1"/>
        <path id="Path_12189" data-name="Path 12189" d="M32.483,119.251a21.134,21.134,0,0,1,4.946.5.914.914,0,0,1,.887,1.054,17.079,17.079,0,0,1-.6,4.9,6.461,6.461,0,0,1-5.452,4.7,24.27,24.27,0,0,1-6.506,0c-.887-.073-.962-.687-.745-1.309.8-2.283,1.355-4.645,2.3-6.882a4.389,4.389,0,0,1,5.171-2.955" transform="translate(-8.905 -42.607)" fill="#b1b1b1"/>
        <path id="Path_12190" data-name="Path 12190" d="M35.1,173.028c0,4.116-1.254,5.988-4.9,7.517a10.959,10.959,0,0,1-4.768,1.163c-.832-.039-1.28-.405-1.241-1.277a36.027,36.027,0,0,1,.911-7.655c.8-3.02,2.89-4.417,5.788-4.908.119-.021.243,0,.362-.022,3.6-.527,2.761-.431,3.566,2.62a6.105,6.105,0,0,1,.285,2.561" transform="translate(-8.646 -59.926)" fill="#b1b1b1"/>
        <path id="Path_12191" data-name="Path 12191" d="M114.106,293.533a11.4,11.4,0,0,1-1.314,5.3c-.316.595-.659.908-1.416.614a19.322,19.322,0,0,1-6.9-4.493c-1.552-1.594-1.219-3.669-.767-5.614.371-1.6.96-3.153,1.379-4.746.233-.882.652-.946,1.376-.583.682.342,1.395.626,2.1.912,3.979,1.6,5.334,4.844,5.543,8.611" transform="translate(-36.946 -101.475)" fill="#b1b1b1"/>
        <path id="Path_12192" data-name="Path 12192" d="M77.061,304.086a9.9,9.9,0,0,1-4.938-1.886c-.928-.571-1.8-1.235-2.734-1.8-.689-.412-.755-.85-.294-1.466,1.208-1.617,2.355-3.282,3.614-4.856a4.17,4.17,0,0,1,5.285-1.421,18.69,18.69,0,0,1,6.039,3.237c.467.431.555.685.188,1.184a60.967,60.967,0,0,1-3.842,4.984,5.869,5.869,0,0,1-3.319,2.019" transform="translate(-24.599 -104.495)" fill="#b1b1b1"/>
        <path id="Path_12193" data-name="Path 12193" d="M16.031,212.717c-4.19,0-7.077-2.429-7.833-6.685-.671-3.781-.653-3.026,2.539-4.023a16.919,16.919,0,0,1,4.288-.6,3.814,3.814,0,0,1,3.659,2.147c1.05,1.954,2.064,3.932,2.985,5.948.64,1.4.276,2.031-1.23,2.472a13.163,13.163,0,0,1-4.409.74" transform="translate(-2.806 -72.013)" fill="#b1b1b1"/>
        <path id="Path_12194" data-name="Path 12194" d="M37.9,264.547a5.037,5.037,0,0,1-3.039-1.288,29.926,29.926,0,0,1-4.433-5.424c-.355-.519-.328-.763.242-1.11,1.755-1.07,3.447-2.244,5.194-3.328a3.751,3.751,0,0,1,4.991.391c1.735,1.627,3.309,3.424,4.973,5.129a.845.845,0,0,1-.051,1.288,18.18,18.18,0,0,1-7.876,4.344" transform="translate(-10.796 -90.329)" fill="#b1b1b1"/>
        <path id="Path_12195" data-name="Path 12195" d="M28.826,198.676a5.265,5.265,0,0,1,2.633-4.789,35.477,35.477,0,0,1,5.362-2.506c.728-.306.986-.061,1.152.637a47.809,47.809,0,0,1,1.379,6.727,4.778,4.778,0,0,1-1.715,4.315,48.783,48.783,0,0,1-6.333,4.01c-.59.346-.847.034-.966-.434a45.466,45.466,0,0,1-1.513-7.961" transform="translate(-10.306 -68.382)" fill="#b1b1b1"/>
        <path id="Path_12196" data-name="Path 12196" d="M83.157,48.183A5.6,5.6,0,0,1,79.242,46.4c-1.387-1.293-2.7-2.666-4.04-4.007-.5-.5-.705-.994.024-1.486,1.537-1.038,3.027-2.15,4.609-3.113,3.01-1.833,4.46-1.726,7.035.641a35.437,35.437,0,0,1,3.805,4.373c.359.459.332.751-.134,1.082a57.821,57.821,0,0,1-5.495,3.733,3.655,3.655,0,0,1-1.889.558" transform="translate(-26.727 -13.06)" fill="#b1b1b1"/>
        <path id="Path_12197" data-name="Path 12197" d="M39.568,106.861a40.833,40.833,0,0,1-7.337-1.674c-.439-.125-.437-.339-.332-.715A21.831,21.831,0,0,1,35.349,97.5c1.5-2.073,3.4-2.313,5.639-1.761,1.595.394,3.194.77,4.79,1.157.384.093.874.108.662.732-.945,2.773-1.694,5.631-3.7,7.919a4.417,4.417,0,0,1-3.173,1.314" transform="translate(-11.385 -34.141)" fill="#b1b1b1"/>
        <path id="Path_12198" data-name="Path 12198" d="M103.892,24.779c2.376-.161,4.1,1.259,5.364,3.422a23.531,23.531,0,0,1,1.492,3.435c.184.476.117.731-.322.98a37.567,37.567,0,0,1-5.181,2.615c-2.613.986-4.133.615-5.858-1.583a48.982,48.982,0,0,1-3.853-5.71c-.477-.822-.322-1.169.568-1.455a24.409,24.409,0,0,1,7.792-1.7" transform="translate(-34.064 -8.856)" fill="#b1b1b1"/>
        <path id="Path_12199" data-name="Path 12199" d="M120.845,14.471a59.851,59.851,0,0,1-8.051-1.5c-.629-.13-.648-.415-.448-.943a35.453,35.453,0,0,1,2.962-6.225c1.544-2.491,3.327-3.214,6.164-2.514a40.505,40.505,0,0,1,5.017,1.754c.618.242.793.545.5,1.185a43.877,43.877,0,0,1-3.143,6.138c-.866,1.29-1.98,2.266-3,2.1" transform="translate(-40.13 -1.086)" fill="#b1b1b1"/>
        <path id="Path_12200" data-name="Path 12200" d="M40.787,65.717a5.609,5.609,0,0,1-.641,2.57c-.732,1.833-1.53,3.639-2.269,5.469-.3.752-.644,1-1.439.528a16.978,16.978,0,0,1-6.221-6.764,2.672,2.672,0,0,1-.042-2.454c1.036-2.317,2.087-4.628,3.083-6.962.32-.75.618-.777,1.193-.262,1.62,1.45,3.294,2.841,4.9,4.3a4.42,4.42,0,0,1,1.435,3.571" transform="translate(-10.69 -20.557)" fill="#b1b1b1"/>
        <path id="Path_12201" data-name="Path 12201" d="M99.834,7.568a6.827,6.827,0,0,1-1.972,4.094,32.584,32.584,0,0,1-4.939,4.616c-.6.46-.842.344-1.136-.287a40.147,40.147,0,0,1-2.317-6.081,5.918,5.918,0,0,1,2.046-6.7A28.707,28.707,0,0,1,96.423.145c.452-.242.773-.19,1.015.227,1.172,2.019,2.394,4.023,2.4,7.2" transform="translate(-31.881 0)" fill="#b1b1b1"/>
        <path id="Path_12202" data-name="Path 12202" d="M14.977,152.594c.019,2.685.446,2.881-2.091,2.5a22.414,22.414,0,0,1-5.385-1.23,5.727,5.727,0,0,1-3.43-4.644c-.429-2.216-.049-4.425-.005-6.637.013-.659.411-.734.888-.644a50.333,50.333,0,0,1,6.128,1.284c2.225.714,3.1,2.426,3.368,4.563.227,1.8.4,3.6.527,4.806" transform="translate(-1.383 -50.74)" fill="#b1b1b1"/>
        <path id="Path_12203" data-name="Path 12203" d="M37.718,222.032a5.78,5.78,0,0,1,2.534-5.2,25.342,25.342,0,0,1,4.025-2.44c.478-.256.731-.151.911.33.9,2.409,2.238,4.644,2.79,7.192a4.342,4.342,0,0,1-1.359,4.276,54.5,54.5,0,0,1-5.648,4.529c-.648.459-.985.451-1.251-.4-.851-2.721-1.882-5.4-2-8.283" transform="translate(-13.478 -76.607)" fill="#b1b1b1"/>
        <path id="Path_12204" data-name="Path 12204" d="M27.7,91.9a78.472,78.472,0,0,1-1.763,7.709c-.2.7-.682.824-1.3.375q-3.127-2.275-6.268-4.532a3.179,3.179,0,0,1-1.244-3.632c.587-2.382,1.244-4.747,1.793-7.138.2-.895.513-.919,1.218-.5,1.623.974,3.282,1.888,4.927,2.826A5.233,5.233,0,0,1,27.7,91.9" transform="translate(-6.074 -30.005)" fill="#b1b1b1"/>
        <path id="Path_12205" data-name="Path 12205" d="M55.532,234.791c1.472,2.35,3.045,4.5,4.25,6.87a4.2,4.2,0,0,1-.322,4.573,50.765,50.765,0,0,1-4.6,5.591c-.529.561-.983.648-1.489.015-2.274-2.839-3.928-5.9-3.533-9.715a4.516,4.516,0,0,1,.936-1.937,36.785,36.785,0,0,1,4.762-5.4" transform="translate(-17.798 -83.95)" fill="#b1b1b1"/>
        <path id="Path_12206" data-name="Path 12206" d="M66.825,23.416a3.41,3.41,0,0,1,.7-2.139c1.62-2.016,3.524-3.767,5.248-5.685.295-.328.6-.752.977-.046,1.165,2.162,2.369,4.3,3.514,6.477a4.233,4.233,0,0,1-.648,4.867C75.109,28.772,73.4,30.5,71.785,32.3c-.387.429-.731.646-1.088-.051a82.363,82.363,0,0,1-3.712-8.137,4.176,4.176,0,0,1-.16-.693" transform="translate(-23.894 -5.421)" fill="#b1b1b1"/>
        <path id="Path_12207" data-name="Path 12207" d="M34.331,146.171c.063,2.908-.466,5.642-2.646,7.758-2.456,2.384-5.474,2.416-8.595,1.87-.544-.1-.458-.516-.4-.847.477-2.563.925-5.133,1.49-7.677.511-2.3,2.309-3.019,4.393-3.285,1.512-.193,3.027-.357,4.534-.578.97-.142,1.325.236,1.229,1.185a15.655,15.655,0,0,0-.01,1.573" transform="translate(-8.098 -51.268)" fill="#b1b1b1"/>
        <path id="Path_12208" data-name="Path 12208" d="M55.051,285.76a2.583,2.583,0,0,1-1.687-.485c-2-1.5-3.975-3.027-5.971-4.527-.547-.411-.445-.728,0-1.152,1.541-1.481,2.974-3.075,4.629-4.437a4.283,4.283,0,0,1,5.168-.5c1.853,1.132,3.627,2.4,5.421,3.627.7.478.808.931.031,1.557-2.132,1.72-4.189,3.534-6.3,5.275-.383.315-.76.778-1.283.642" transform="translate(-16.813 -97.973)" fill="#b1b1b1"/>
        <path id="Path_12209" data-name="Path 12209" d="M65.3,53.154a3.756,3.756,0,0,1,2.475.682,28.971,28.971,0,0,1,5.125,4.04c.459.435.468.75,0,1.186-1.708,1.6-3.242,3.386-5.1,4.834-1.377,1.075-2.217,1.21-3.628.3-2.234-1.446-4.408-2.988-6.6-4.493-.261-.179-.629-.363-.213-.73,1.9-1.683,3.426-3.785,5.628-5.133a3.177,3.177,0,0,1,2.31-.68" transform="translate(-20.442 -18.989)" fill="#b1b1b1"/>
        <path id="Path_12210" data-name="Path 12210" d="M74.956,262.85a2.843,2.843,0,0,1-.4,1.835c-1.127,2.141-2.439,4.169-3.752,6.2-.172.265-.3.75-.8.322a20.288,20.288,0,0,1-5-5.973A5.149,5.149,0,0,1,65,260.566,31.974,31.974,0,0,1,68.82,254.7c.2-.276.407-.524.764-.171,2.116,2.1,4.317,4.132,5.231,7.115a3.031,3.031,0,0,1,.136.584,5.52,5.52,0,0,1,.006.619" transform="translate(-23.044 -90.946)" fill="#b1b1b1"/>
        <path id="Path_12211" data-name="Path 12211" d="M93.571,277.281a10.489,10.489,0,0,1-.757,3.2c-.709,2.223-1.469,4.43-2.213,6.642-.119.354-.251.764-.729.364-2.366-1.987-4.913-3.788-6.326-6.7-.721-1.488-.241-2.838.247-4.193.695-1.932,1.483-3.83,2.208-5.751.164-.434.231-.776.786-.328a70.042,70.042,0,0,1,5.66,4.717,3.142,3.142,0,0,1,1.124,2.048" transform="translate(-29.741 -96.648)" fill="#b1b1b1"/>
        <path id="Path_12212" data-name="Path 12212" d="M126.118,109.277q0,29,.028,58c0,1.166-.36,1.374-1.424,1.371q-18.368-.052-36.736-.021c-.161,0-.324.011-.484,0-.229-.013-.555.064-.594-.252-.049-.408.319-.374.588-.422,2.615-.472,5.229-.952,7.846-1.417,7.727-1.373,15.453-2.759,23.189-4.083.86-.147,1.03-.5,1.026-1.259q-.049-8.189-.045-16.379-.01-51.385-.013-102.768c0-1.993.007-2.01,1.847-1.327,12.185,4.522,24.239,9.385,36.346,14.113q11.867,4.632,23.721,9.3a6.632,6.632,0,0,1,2.006,1.095,2.767,2.767,0,0,1,1.019,2.2c.168,11.324.119,22.648.127,33.972,0,1.392-.008,1.4-1.348.917-1.023-.365-2.035-.762-3.066-1.1a3,3,0,0,1-2.124-3.258c.018-7.967.006-15.935,0-23.9,0-.364,0-.728,0-1.092,0-3.006-.1-3.161-2.888-4.245l-47.254-18.4c-1.762-.686-1.767-.684-1.767,1.2q0,28.876,0,57.754" transform="translate(-31.072 -14.412)" fill="#23418f"/>
        <path id="Path_12213" data-name="Path 12213" d="M186.746,138.441q0,26.633-.021,53.266c0,.985.189,1.329,1.257,1.462,7.673.953,15.293,2.279,22.935,3.452,5.493.844,11.012,1.52,16.517,2.276.3.041.754.074.754.393,0,.345-.581.29-.89.29q-13.58.022-27.159.012c-6.1,0-12.205-.033-18.307.028-1.178.012-1.538-.22-1.537-1.49q.062-51.567.032-103.135c0-1.8,0-1.792-1.654-1.146Q168.211,97.925,157.746,102c-1.164.453-1.4.3-1.509-.953q-.084-.967-.154-1.934c-.177-2.463.445-3.6,2.725-4.561,2.779-1.17,5.593-2.256,8.4-3.348,6.077-2.361,12.167-4.69,18.238-7.066,1.025-.4,1.325-.294,1.322.92q-.059,26.694-.026,53.387" transform="translate(-55.799 -30.007)" fill="#23418f"/>
        <path id="Path_12214" data-name="Path 12214" d="M151.229,129.886c-2.313-.838-4.43-1.6-6.54-2.374-1.418-.524-1.415-.537-1.415,1.03q0,40.59,0,81.179c0,1.659,0,1.658-1.658,1.657H91.779c-1.647,0-1.868-.041-1.868-.337,0-.492.762-.56,1.145-.61,3.519-.461,7.048-.847,10.571-1.268,6.685-.8,13.369-1.614,20.055-2.4,4.483-.529,8.967-1.056,13.459-1.508,1.149-.116,1.48-.493,1.478-1.688q-.063-42.531-.058-85.062c0-1.189.316-1.219,1.269-.833,3.693,1.494,7.388,2.991,11.129,4.358a3.209,3.209,0,0,1,2.256,3.2c.071,1.49.015,2.986.015,4.656" transform="translate(-32.148 -41.993)" fill="#23418f"/>
        <path id="Path_12215" data-name="Path 12215" d="M102.7,179.454s-.538-.019-.809-.018q-8.6.009-17.226,0c0-.189.463-.526.734-.678,3.125-1.762,6.248-3.528,9.405-5.231a1.569,1.569,0,0,0,.962-1.586c.181-17.059.544-34.117.456-51.177a1.6,1.6,0,0,1,1.26-1.787q7-2.661,13.932-5.474c.926-.375,1.317-.152,1.517.745.141.628.346,1.241.476,1.87a3.985,3.985,0,0,1-2.15,4.46,25.883,25.883,0,0,1-4.326,1.836c-2.278.843-4.095,2.082-4.219,4.744-.019.552-.024.722-.024,1.063q-.022,24.579-.005,49.159c0,.639.015,2.07.015,2.07" transform="translate(-30.273 -40.522)" fill="#23418f"/>
        <path id="Path_12216" data-name="Path 12216" d="M245.647,181.849l11.579,5.806c-.216.217-.8.195-1.131.2-5.333.011-10.667-.019-16,.031-.987.01-1.278-.217-1.273-1.244.044-10.027.033-20.053.035-30.081,0-2.039-.311-2.482-2.227-3.22q-10.592-4.074-21.183-8.149c-2.8-1.076-3.6-2.48-3.118-5.438.032-.2.063-.4.078-.6.17-2.231.173-2.24,2.216-1.449q14.236,5.517,28.472,11.037a3.1,3.1,0,0,1,2.251,2.435,3.883,3.883,0,0,0-.058,1.084q0,14.165.015,28.329c0,.419-.076,1.023.343,1.264" transform="translate(-75.872 -49.064)" fill="#23418f"/>
        <path id="Path_12217" data-name="Path 12217" d="M229.02,188.13c0-7.846.017-15.692-.019-23.539,0-1.021.212-1.3,1.19-.857a26.1,26.1,0,0,0,2.606.957,3.425,3.425,0,0,1,2.5,3.573c.01,1.011.027,2.022.029,3.033.017,11.243.046,22.487.02,33.73,0,.983.346,1.28,1.23,1.465q13.057,2.733,26.1,5.535c.221.047.552.077.576.3.044.4-.332.4-.6.409-.605.024-22.268,0-32.492.048-1.02,0-1.163-.348-1.159-1.234.029-7.806.017-15.611.017-23.417" transform="translate(-81.881 -58.471)" fill="#23418f"/>
        <rect id="Rectangle_1969" data-name="Rectangle 1969" width="229.456" height="253.558" transform="translate(0 0.001)" fill="none"/>
      </g>
    </g>
  </g>
</svg>
