<svg xmlns="http://www.w3.org/2000/svg" xmlns:xlink="http://www.w3.org/1999/xlink" width="137.629" height="152.086" viewBox="0 0 137.629 152.086">
  <defs>
    <clipPath id="clip-path">
      <rect id="Rectangle_1969" data-name="Rectangle 1969" width="137.629" height="152.086" transform="translate(0.426)" fill="none"/>
    </clipPath>
  </defs>
  <g id="Group_40870" data-name="Group 40870" transform="translate(-0.426)">
    <text id="EST." transform="translate(52.83 124.513)" font-size="7" font-family="SegoeUI, Segoe UI"><tspan x="0" y="0">EST.</tspan></text>
    <text id="_" data-name=" " transform="translate(66.466 117.901)" font-size="1" font-family="SegoeUI, Segoe UI"><tspan x="0" y="0"> </tspan></text>
    <text id="_2020" data-name="2020" transform="translate(67.65 124.513)" font-size="10" font-family="Aminemod-Bold, Amine_mod" font-weight="700"><tspan x="0" y="0">2020</tspan></text>
    <g id="Group_40847" data-name="Group 40847">
      <g id="Group_40846" data-name="Group 40846" clip-path="url(#clip-path)">
        <text id="شركة_نماء_الخليج_للتنمية_العمرانية" data-name="شركة نماء الخليج للتنمية العمرانية" transform="translate(30.853 135.178)" fill="#090a0a" font-size="5" font-family="DroidArabicNaskh-Bold, Droid Arabic Naskh" font-weight="700"><tspan x="0" y="0">شركة نماء الخليج للتنمية العمرانية</tspan></text>
        <text id="NAMAA_ALKHALEEJ_FOR_URBAN_DEVELOPMENT" data-name="NAMAA ALKHALEEJ FOR URBAN DEVELOPMENT" transform="translate(14.854 146.351)" fill="#818181" font-size="5" font-family="SegoeUI, Segoe UI"><tspan x="0" y="0">NAMAA ALKHALEEJ FOR URBAN DEVELOPMENT</tspan></text>
        <path id="Path_12154" data-name="Path 12154" d="M243.928,313.585c-1.6.1-2.608-.9-3.4-2.19a11.4,11.4,0,0,1-1.122-2.669c-.084-.271-.212-.574.218-.7a16.238,16.238,0,0,1,4.492-1.027,3.141,3.141,0,0,1,2.843,1.555,13.986,13.986,0,0,1,1.35,3.2.558.558,0,0,1-.352.761,9.012,9.012,0,0,1-4.023,1.078" transform="translate(-147.097 -188.696)" fill="#b1b1b1"/>
        <path id="Path_12155" data-name="Path 12155" d="M298.3,39.472a6.064,6.064,0,0,1-3.12,4.825c-.245.164-.381.032-.561-.118a5.084,5.084,0,0,1-1.043-1.559c-.4-.719-.815-1.432-1.218-2.149a3.04,3.04,0,0,1,.177-3.424A24.623,24.623,0,0,1,294.9,34.2c.188-.2.34-.325.6-.08a7.828,7.828,0,0,1,2.81,5.356" transform="translate(-179.428 -20.887)" fill="#b1b1b1"/>
        <path id="Path_12156" data-name="Path 12156" d="M331.415,116.641c-.036-1.139-.013-2.26,1.016-3.027a13.562,13.562,0,0,1,3.02-1.388c.111-.047.227-.083.341-.122,1.355-.467,1.4-.435,1.6,1.007.133.978.289,1.954.408,2.933a2.914,2.914,0,0,1-1.5,3.121,31.129,31.129,0,0,1-3.905,1.736c-.319.13-.444.029-.548-.319a19.94,19.94,0,0,1-.427-3.941" transform="translate(-203.701 -68.741)" fill="#b1b1b1"/>
        <path id="Path_12157" data-name="Path 12157" d="M294.872,79.828c-1.586.065-2.7-.919-3.693-2.088a10.112,10.112,0,0,1-1.369-2.3.432.432,0,0,1,.2-.654,15.582,15.582,0,0,1,3.829-1.867,2.047,2.047,0,0,1,2.019.486,15.72,15.72,0,0,1,2.959,3.917.536.536,0,0,1-.072.766,5.3,5.3,0,0,1-3.873,1.74" transform="translate(-178.088 -44.768)" fill="#b1b1b1"/>
        <path id="Path_12158" data-name="Path 12158" d="M339.806,172.535c.581,0,1.163.016,1.744-.006.358-.013.532.1.559.479a7.929,7.929,0,0,1-1.383,5.563,2.633,2.633,0,0,1-1.995.9,10.461,10.461,0,0,1-3.463-.125c-.574-.139-.945-.356-.682-1.113.4-1.159.619-2.384,1.017-3.545a2.783,2.783,0,0,1,3.113-2.156h1.09" transform="translate(-205.602 -106.046)" fill="#b1b1b1"/>
        <path id="Path_12159" data-name="Path 12159" d="M315.866,126.062a6.8,6.8,0,0,1-2.122-.2,4.074,4.074,0,0,1-3.265-3.942c-.062-.576-.086-1.156-.147-1.731-.047-.444.188-.6.576-.661a20.532,20.532,0,0,1,3.6-.313,2.412,2.412,0,0,1,2.228,1.344,21.518,21.518,0,0,1,1.285,3.534c.124.364.224.737.337,1.1.144.464-.043.719-.508.726a13.527,13.527,0,0,1-1.987.133" transform="translate(-190.744 -73.277)" fill="#b1b1b1"/>
        <path id="Path_12160" data-name="Path 12160" d="M321.97,235.468a13.935,13.935,0,0,1-4.877-1.714c-.246-.113-.223-.251-.079-.452.954-1.337,1.8-2.759,2.869-4a2.081,2.081,0,0,1,2.479-.68c1.192.464,2.377.951,3.581,1.383.4.144.492.32.317.68a20.233,20.233,0,0,1-2.051,3.666,2.5,2.5,0,0,1-2.238,1.122" transform="translate(-194.789 -140.42)" fill="#b1b1b1"/>
        <path id="Path_12161" data-name="Path 12161" d="M329.946,208.217a8.875,8.875,0,0,1-2.7-.451c-.8-.219-1.058-.634-.716-1.386.581-1.277,1.188-2.55,1.892-3.761a2.464,2.464,0,0,1,2.546-1.154,13.247,13.247,0,0,1,3.459.71c.22.079.426.118.464.452a5.675,5.675,0,0,1-2.965,5.256,4.4,4.4,0,0,1-1.982.333" transform="translate(-200.614 -123.824)" fill="#b1b1b1"/>
        <path id="Path_12162" data-name="Path 12162" d="M306.407,259.75a5.168,5.168,0,0,1-1.488-.409,16.41,16.41,0,0,1-3.147-1.923c-.4-.305-.571-.664-.142-1.146a40.439,40.439,0,0,1,2.94-3.009,2.088,2.088,0,0,1,2.611-.345c1.185.7,2.33,1.467,3.5,2.2.236.148.282.3.123.529a16.511,16.511,0,0,1-2.839,3.465,2.68,2.68,0,0,1-1.556.642" transform="translate(-185.244 -155.265)" fill="#b1b1b1"/>
        <path id="Path_12163" data-name="Path 12163" d="M267.953,292.275a2.357,2.357,0,0,1,1.753.739c1.021,1.04,1.746,2.31,2.658,3.435a.3.3,0,0,1-.059.491,13.472,13.472,0,0,1-4.055,2.329,2.28,2.28,0,0,1-2.254-.641,20.283,20.283,0,0,1-2.908-3.6c-.194-.268-.013-.387.16-.528a11.506,11.506,0,0,1,4.706-2.228" transform="translate(-161.656 -179.649)" fill="#b1b1b1"/>
        <path id="Path_12164" data-name="Path 12164" d="M321.582,174.236c0,.17,0,.339,0,.509.023,1.154-.192,1.371-1.343,1.2a9.317,9.317,0,0,1-3.616-1.415,3.266,3.266,0,0,1-1.43-2.51,9.648,9.648,0,0,1,.391-4.087c.059-.182.055-.355.311-.42a5.143,5.143,0,0,1,4.8,2.071,9.972,9.972,0,0,1,.879,4.288c0,.121,0,.242,0,.363Z" transform="translate(-193.695 -102.918)" fill="#b1b1b1"/>
        <path id="Path_12165" data-name="Path 12165" d="M236.267,290.025a5.467,5.467,0,0,1,3.778-5.653c1.367-.533,1.339-.607,1.788.76a24.447,24.447,0,0,1,.751,2.868,2.935,2.935,0,0,1-1.089,3.1,12.855,12.855,0,0,1-3.482,2.17c-.528.195-.816.075-1.066-.457a5.893,5.893,0,0,1-.679-2.787" transform="translate(-145.218 -174.572)" fill="#b1b1b1"/>
        <path id="Path_12166" data-name="Path 12166" d="M241.5,31.292a5.3,5.3,0,0,1-2-.571c-.55-.245-1.08-.538-1.6-.836-1.268-.719-1.264-.725-.659-2.083,1.282-2.879,2.771-3.6,5.832-2.842a27.8,27.8,0,0,1,2.824.893c.271.1.437.182.24.5a21.553,21.553,0,0,1-3.072,4.289,2,2,0,0,1-1.558.645" transform="translate(-145.575 -15.169)" fill="#b1b1b1"/>
        <path id="Path_12167" data-name="Path 12167" d="M261.212,43.521a3.021,3.021,0,0,1-1.858-.646c-.891-.579-1.741-1.221-2.61-1.832-.357-.251-.46-.481-.128-.878.7-.835,1.379-1.682,2.159-2.444,1.408-1.377,2.4-1.531,4.084-.526,1.035.618,2.013,1.331,3.017,2a.391.391,0,0,1,.076.67,21.686,21.686,0,0,1-3.427,3.218,1.987,1.987,0,0,1-1.312.438" transform="translate(-157.607 -22.464)" fill="#b1b1b1"/>
        <path id="Path_12168" data-name="Path 12168" d="M224.964,9.848c-1.214.154-1.835-.683-2.363-1.518a25.273,25.273,0,0,1-1.678-3.381c-.14-.32-.167-.506.212-.665a13.686,13.686,0,0,1,4.07-1.245,2.869,2.869,0,0,1,2.71,1.628,22.589,22.589,0,0,1,1.807,3.8c.1.25.163.422-.223.508a34.52,34.52,0,0,1-4.535.875" transform="translate(-135.733 -1.862)" fill="#b1b1b1"/>
        <path id="Path_12169" data-name="Path 12169" d="M317.317,195.687a26.178,26.178,0,0,1-.906,4.745c-.094.361-.29.375-.584.2a27.69,27.69,0,0,1-3.742-2.356,2.991,2.991,0,0,1-1.024-2.812,29.224,29.224,0,0,1,.854-4.031c.059-.222.123-.387.377-.279a14.121,14.121,0,0,1,3.992,2.016,2.755,2.755,0,0,1,1.032,2.516" transform="translate(-191.177 -117.474)" fill="#b1b1b1"/>
        <path id="Path_12170" data-name="Path 12170" d="M305.865,102.266a2.748,2.748,0,0,1-2.385-1.21,17.736,17.736,0,0,1-1.817-4.257c-.064-.188-.084-.4.188-.459a40.593,40.593,0,0,1,4.313-.908,1.874,1.874,0,0,1,1.6.687,8.567,8.567,0,0,1,2.312,3.951c.092.373.553.767.218,1.111-.236.242-.71.254-1.081.36a18.51,18.51,0,0,1-3.345.724" transform="translate(-185.395 -58.652)" fill="#b1b1b1"/>
        <path id="Path_12171" data-name="Path 12171" d="M256.833,4.957a10.281,10.281,0,0,1-1.171,4c-.6,1.321-.627,1.33-1.753.409a22.6,22.6,0,0,1-1.766-1.616,4.662,4.662,0,0,1-.893-6.18c.829-1.558.83-1.56,2.374-.7a10.069,10.069,0,0,1,2.082,1.442,3.135,3.135,0,0,1,1.127,2.639" transform="translate(-153.953 -0.183)" fill="#b1b1b1"/>
        <path id="Path_12172" data-name="Path 12172" d="M341.5,144.456a13.662,13.662,0,0,1-.011,1.737,3.619,3.619,0,0,1-3.107,3.268c-.915.2-1.846.326-2.771.475-.522.084-.839-.057-.765-.683a39.732,39.732,0,0,1,.62-4.794,2.426,2.426,0,0,1,1.657-1.691,24.106,24.106,0,0,1,3.8-.823c.27-.05.423.025.5.346a9.039,9.039,0,0,1,.071,2.166" transform="translate(-205.808 -87.238)" fill="#b1b1b1"/>
        <path id="Path_12173" data-name="Path 12173" d="M308.609,218.882a21.454,21.454,0,0,1-1.32,5.185c-.115.349-.3.3-.546.127a26.4,26.4,0,0,1-3.659-2.971,2.706,2.706,0,0,1-.537-2.98c.46-1.248,1.017-2.46,1.531-3.689.1-.248.211-.431.533-.254a10.776,10.776,0,0,1,3.156,2.166,3.592,3.592,0,0,1,.842,2.415" transform="translate(-185.827 -131.678)" fill="#b1b1b1"/>
        <path id="Path_12174" data-name="Path 12174" d="M315.878,62.787a1.639,1.639,0,0,1-.24.839,11.162,11.162,0,0,1-3.569,3.855c-.524.333-.748.2-.956-.323-.466-1.17-1-2.313-1.443-3.49a2.993,2.993,0,0,1,.989-3.825c.838-.734,1.68-1.463,2.515-2.2.243-.215.444-.4.651.046.676,1.474,1.375,2.939,1.941,4.461a3.484,3.484,0,0,1,.113.636" transform="translate(-190.15 -35.29)" fill="#b1b1b1"/>
        <path id="Path_12175" data-name="Path 12175" d="M296.376,240.212a9.163,9.163,0,0,1-2.195,5.031.5.5,0,0,1-.858.02,27.234,27.234,0,0,1-2.947-3.678,2.255,2.255,0,0,1-.077-2.418c.749-1.3,1.566-2.561,2.356-3.836.156-.253.314-.323.558-.062a26.994,26.994,0,0,1,2.639,3.086,2.832,2.832,0,0,1,.523,1.857" transform="translate(-178.241 -144.508)" fill="#b1b1b1"/>
        <path id="Path_12176" data-name="Path 12176" d="M322.688,88.545a2.792,2.792,0,0,1,1.558-2.752c.985-.57,1.979-1.122,2.957-1.7.368-.218.578-.243.693.253.361,1.551.894,3.059,1.126,4.643a1.79,1.79,0,0,1-.685,1.779c-1.239,1.013-2.58,1.881-3.879,2.809-.381.272-.607.227-.745-.23a30.162,30.162,0,0,1-1.026-4.8" transform="translate(-198.338 -51.596)" fill="#b1b1b1"/>
        <path id="Path_12177" data-name="Path 12177" d="M315.241,145.456c.005-2.243.029-2.255,1.688-1.955.521.094,1.052.138,1.579.19,1.966.19,2.737.87,3.109,2.822.234,1.232.372,2.483.645,3.7.12.536-.051.582-.489.651-2.147.34-4.083.034-5.449-1.842a6.441,6.441,0,0,1-1.083-3.571" transform="translate(-193.765 -88.12)" fill="#b1b1b1"/>
        <path id="Path_12178" data-name="Path 12178" d="M278.658,53.129a3.531,3.531,0,0,1,2.49,1.219c.751.644,1.411,1.395,2.134,2.074.319.3.286.5-.055.734-1.257.858-2.5,1.742-3.767,2.581a1.571,1.571,0,0,1-2.244-.129c-1.093-.949-2.112-1.985-3.166-2.98-.184-.174-.273-.337-.04-.538a14.478,14.478,0,0,1,3.758-2.8,1.994,1.994,0,0,1,.89-.164" transform="translate(-168.336 -32.653)" fill="#b1b1b1"/>
        <path id="Path_12179" data-name="Path 12179" d="M279.052,20.14c-.126.366-.238.736-.378,1.1-.545,1.4-1.223,2.737-1.9,4.076-.224.445-.421.526-.779.119-.878-1-1.785-1.971-2.672-2.963a2.919,2.919,0,0,1-.357-3.619c.6-1.107,1.235-2.19,1.826-3.3.2-.378.34-.365.622-.082q1.64,1.646,3.184,3.381c.338.38.3.852.451,1.291" transform="translate(-167.498 -9.38)" fill="#b1b1b1"/>
        <path id="Path_12180" data-name="Path 12180" d="M281.594,259.492a2.646,2.646,0,0,1-.48,1.6,12.32,12.32,0,0,1-2.848,3.266c-.212.164-.308.15-.447-.064a29.1,29.1,0,0,1-2.51-4.329,2.389,2.389,0,0,1,.373-2.141,14.062,14.062,0,0,1,2.679-3.324c.154-.143.326-.384.528-.1a14.953,14.953,0,0,1,2.575,4.263,2.058,2.058,0,0,1,.129.826" transform="translate(-169.14 -156.289)" fill="#b1b1b1"/>
        <path id="Path_12181" data-name="Path 12181" d="M289.06,280.995a.785.785,0,0,1-.615-.178c-1.341-1.145-2.679-2.3-4.036-3.421-.35-.29-.385-.573-.038-.8a20.627,20.627,0,0,1,4.024-2.543,2.35,2.35,0,0,1,2.467.634c.949.86,1.831,1.8,2.748,2.692.2.194.3.322.009.555-1.214.956-2.4,1.943-3.682,2.811a1.252,1.252,0,0,1-.878.254" transform="translate(-174.641 -168.362)" fill="#b1b1b1"/>
        <path id="Path_12182" data-name="Path 12182" d="M263.071,275.692a3.323,3.323,0,0,1-.953,2.221,18.76,18.76,0,0,1-2.809,2.621c-.369.3-.587.24-.73-.206-.57-1.772-1.248-3.509-1.689-5.322a1.662,1.662,0,0,1,.581-1.552,28.43,28.43,0,0,1,3.367-2.87c.158-.128.372-.3.513.047a26.245,26.245,0,0,1,1.717,4.843,1.247,1.247,0,0,1,0,.218" transform="translate(-157.876 -166.22)" fill="#b1b1b1"/>
        <path id="Path_12183" data-name="Path 12183" d="M97.78,313.566a9.082,9.082,0,0,1-4.133-1.19c-.159-.077-.314-.181-.246-.386a11.242,11.242,0,0,1,1.855-4.058,3.387,3.387,0,0,1,3.278-.907,17.324,17.324,0,0,1,3.556.961c.3.105.433.2.321.566a11.126,11.126,0,0,1-1.563,3.408,3.385,3.385,0,0,1-3.069,1.607" transform="translate(-57.399 -188.673)" fill="#b1b1b1"/>
        <path id="Path_12184" data-name="Path 12184" d="M47.918,38.7c.044-1.684,1.309-3.273,2.779-4.76.24-.242.378-.1.523.072a34.633,34.633,0,0,1,2.468,3.037,3.117,3.117,0,0,1,.128,3.307c-.506.963-1.079,1.89-1.6,2.845a5.248,5.248,0,0,1-.736.892.372.372,0,0,1-.565.049A5.861,5.861,0,0,1,47.918,38.7" transform="translate(-29.453 -20.781)" fill="#b1b1b1"/>
        <path id="Path_12185" data-name="Path 12185" d="M8.251,116.379c.1-1.365.321-2.719.542-4.074.075-.459.255-.6.738-.446a26.2,26.2,0,0,1,3.7,1.46,2.674,2.674,0,0,1,1.407,2.53,20.284,20.284,0,0,1-.351,4.388c-.117.593-.309.788-.968.5a31.947,31.947,0,0,1-3.5-1.568,2.726,2.726,0,0,1-1.568-2.794" transform="translate(-5.06 -68.718)" fill="#b1b1b1"/>
        <path id="Path_12186" data-name="Path 12186" d="M4.185,172.542c.412,0,.824,0,1.236,0a2.734,2.734,0,0,1,3,2.109c.422,1.284.741,2.6,1.126,3.9a.457.457,0,0,1-.356.657,8.1,8.1,0,0,1-5.127-.066,2.959,2.959,0,0,1-1.528-1.864,9.863,9.863,0,0,1-.65-4.272c.014-.341.146-.474.483-.467.606.013,1.212,0,1.818,0" transform="translate(-1.15 -106.052)" fill="#b1b1b1"/>
        <path id="Path_12187" data-name="Path 12187" d="M46.729,79.83a5.27,5.27,0,0,1-3.978-1.819.449.449,0,0,1-.056-.635,18.81,18.81,0,0,1,2.618-3.644A2.374,2.374,0,0,1,48,72.987a19.253,19.253,0,0,1,3.607,1.854c.193.114.279.242.174.471a7.833,7.833,0,0,1-3.406,4.1,3.16,3.16,0,0,1-1.65.414" transform="translate(-26.179 -44.77)" fill="#b1b1b1"/>
        <path id="Path_12188" data-name="Path 12188" d="M18.8,235.549c-.744.1-1.42-.618-1.993-1.416a18.588,18.588,0,0,1-1.851-3.443c-.139-.317-.1-.466.238-.593,1.222-.453,2.427-.954,3.652-1.4a2.2,2.2,0,0,1,2.638.79c.884,1.21,1.732,2.445,2.579,3.682.129.188.415.474.012.659a13.236,13.236,0,0,1-5.275,1.724" transform="translate(-9.146 -140.474)" fill="#b1b1b1"/>
        <path id="Path_12189" data-name="Path 12189" d="M29.451,119.217a12.675,12.675,0,0,1,2.967.3.548.548,0,0,1,.532.632,10.245,10.245,0,0,1-.362,2.939,3.875,3.875,0,0,1-3.27,2.816,14.557,14.557,0,0,1-3.9,0c-.532-.044-.577-.412-.447-.785.479-1.369.813-2.786,1.381-4.128a2.633,2.633,0,0,1,3.1-1.772" transform="translate(-15.309 -73.246)" fill="#b1b1b1"/>
        <path id="Path_12190" data-name="Path 12190" d="M30.728,170.856c0,2.468-.752,3.591-2.941,4.509a6.574,6.574,0,0,1-2.86.7c-.5-.023-.768-.243-.744-.766a21.609,21.609,0,0,1,.546-4.592,3.874,3.874,0,0,1,3.472-2.944c.071-.012.146,0,.217-.013,2.161-.316,1.656-.259,2.139,1.572a3.662,3.662,0,0,1,.171,1.536" transform="translate(-14.863 -103.017)" fill="#b1b1b1"/>
        <path id="Path_12191" data-name="Path 12191" d="M109.793,289.639a6.836,6.836,0,0,1-.788,3.179c-.19.357-.4.545-.849.368a11.588,11.588,0,0,1-4.141-2.7c-.931-.956-.731-2.2-.46-3.367.223-.961.576-1.891.827-2.846.139-.529.391-.567.825-.35.409.205.837.376,1.262.547,2.387.961,3.2,2.906,3.325,5.165" transform="translate(-63.511 -174.441)" fill="#b1b1b1"/>
        <path id="Path_12192" data-name="Path 12192" d="M73.755,299.351a5.937,5.937,0,0,1-2.962-1.131c-.557-.343-1.079-.741-1.64-1.077-.413-.247-.453-.51-.176-.879.724-.97,1.412-1.968,2.168-2.913a2.5,2.5,0,0,1,3.17-.852,11.208,11.208,0,0,1,3.622,1.942c.28.259.333.411.113.71a36.578,36.578,0,0,1-2.3,2.989,3.521,3.521,0,0,1-1.991,1.211" transform="translate(-42.289 -179.636)" fill="#b1b1b1"/>
        <path id="Path_12193" data-name="Path 12193" d="M12.756,208.19a4.493,4.493,0,0,1-4.7-4.01c-.4-2.268-.392-1.815,1.523-2.413a10.151,10.151,0,0,1,2.572-.36,2.288,2.288,0,0,1,2.195,1.288c.63,1.172,1.238,2.358,1.791,3.568.384.84.165,1.218-.738,1.483a7.894,7.894,0,0,1-2.645.444" transform="translate(-4.823 -123.794)" fill="#b1b1b1"/>
        <path id="Path_12194" data-name="Path 12194" d="M34.815,259.778a3.021,3.021,0,0,1-1.823-.773,17.946,17.946,0,0,1-2.659-3.253c-.213-.311-.2-.457.145-.666,1.053-.642,2.068-1.346,3.115-2a2.25,2.25,0,0,1,2.993.234c1.04.976,1.985,2.054,2.983,3.076a.507.507,0,0,1-.031.772,10.906,10.906,0,0,1-4.724,2.605" transform="translate(-18.559 -155.282)" fill="#b1b1b1"/>
        <path id="Path_12195" data-name="Path 12195" d="M28.826,195.7a3.158,3.158,0,0,1,1.58-2.872,21.289,21.289,0,0,1,3.216-1.5c.437-.184.592-.037.691.382a28.68,28.68,0,0,1,.827,4.035,2.866,2.866,0,0,1-1.028,2.588,29.245,29.245,0,0,1-3.8,2.405c-.354.208-.508.02-.58-.26a27.269,27.269,0,0,1-.907-4.775" transform="translate(-17.718 -117.554)" fill="#b1b1b1"/>
        <path id="Path_12196" data-name="Path 12196" d="M79.792,43.519a3.359,3.359,0,0,1-2.348-1.069c-.832-.775-1.619-1.6-2.423-2.4-.3-.3-.423-.6.014-.891.922-.622,1.816-1.289,2.764-1.867,1.806-1.1,2.675-1.035,4.22.385A21.254,21.254,0,0,1,84.3,40.3c.215.275.2.45-.08.649a34.683,34.683,0,0,1-3.3,2.239,2.192,2.192,0,0,1-1.133.335" transform="translate(-45.946 -22.452)" fill="#b1b1b1"/>
        <path id="Path_12197" data-name="Path 12197" d="M36.476,102.308a24.492,24.492,0,0,1-4.4-1c-.264-.075-.262-.2-.2-.429a13.094,13.094,0,0,1,2.07-4.182,2.866,2.866,0,0,1,3.382-1.056c.956.236,1.916.462,2.873.694.23.056.524.065.4.439a13.235,13.235,0,0,1-2.218,4.75,2.649,2.649,0,0,1-1.9.788" transform="translate(-19.571 -58.689)" fill="#b1b1b1"/>
        <path id="Path_12198" data-name="Path 12198" d="M100.441,24.774a3.449,3.449,0,0,1,3.218,2.052,14.12,14.12,0,0,1,.895,2.06c.111.286.07.439-.193.588a22.533,22.533,0,0,1-3.108,1.569,2.6,2.6,0,0,1-3.514-.949,29.387,29.387,0,0,1-2.311-3.425c-.286-.493-.193-.7.341-.873a14.64,14.64,0,0,1,4.673-1.022" transform="translate(-58.557 -15.223)" fill="#b1b1b1"/>
        <path id="Path_12199" data-name="Path 12199" d="M117.4,9.9a35.9,35.9,0,0,1-4.829-.9c-.377-.078-.388-.249-.269-.566A21.266,21.266,0,0,1,114.078,4.7a2.961,2.961,0,0,1,3.7-1.508,24.294,24.294,0,0,1,3.01,1.052c.371.145.476.327.3.711A26.316,26.316,0,0,1,119.2,8.635c-.519.774-1.188,1.359-1.8,1.261" transform="translate(-68.986 -1.868)" fill="#b1b1b1"/>
        <path id="Path_12200" data-name="Path 12200" d="M36.429,62.426a3.365,3.365,0,0,1-.384,1.542c-.439,1.1-.918,2.183-1.361,3.28-.182.451-.386.6-.863.317a10.183,10.183,0,0,1-3.731-4.057,1.6,1.6,0,0,1-.025-1.472c.621-1.39,1.252-2.776,1.849-4.176.192-.45.371-.466.716-.157.972.87,1.976,1.7,2.94,2.581a2.651,2.651,0,0,1,.86,2.142" transform="translate(-18.377 -35.338)" fill="#b1b1b1"/>
        <path id="Path_12201" data-name="Path 12201" d="M95.563,4.539A4.1,4.1,0,0,1,94.38,6.995a19.544,19.544,0,0,1-2.963,2.769c-.362.276-.505.207-.681-.172a24.079,24.079,0,0,1-1.39-3.648,3.549,3.549,0,0,1,1.227-4.018A17.219,17.219,0,0,1,93.518.087c.271-.145.464-.114.609.136a7.924,7.924,0,0,1,1.437,4.317" transform="translate(-54.804 0)" fill="#b1b1b1"/>
        <path id="Path_12202" data-name="Path 12202" d="M10.531,148.319c.011,1.611.268,1.728-1.254,1.5a13.445,13.445,0,0,1-3.23-.738A3.435,3.435,0,0,1,3.989,146.3a18.68,18.68,0,0,1,0-3.981c.008-.4.246-.44.533-.386a30.189,30.189,0,0,1,3.676.77,2.931,2.931,0,0,1,2.02,2.737c.136,1.078.238,2.16.316,2.883" transform="translate(-2.378 -87.226)" fill="#b1b1b1"/>
        <path id="Path_12203" data-name="Path 12203" d="M37.709,218.919a3.467,3.467,0,0,1,1.52-3.121,15.208,15.208,0,0,1,2.414-1.464c.287-.154.439-.091.546.2a31.666,31.666,0,0,1,1.674,4.314,2.6,2.6,0,0,1-.815,2.565,32.678,32.678,0,0,1-3.388,2.717c-.389.275-.591.271-.75-.24a19.449,19.449,0,0,1-1.2-4.968" transform="translate(-23.17 -131.692)" fill="#b1b1b1"/>
        <path id="Path_12204" data-name="Path 12204" d="M23.411,88.706a47.067,47.067,0,0,1-1.057,4.624c-.117.421-.409.494-.778.225q-1.876-1.365-3.76-2.718a1.907,1.907,0,0,1-.746-2.179c.352-1.429.746-2.847,1.075-4.281.123-.537.308-.551.731-.3.974.584,1.969,1.132,2.955,1.7a3.139,3.139,0,0,1,1.58,2.932" transform="translate(-10.441 -51.582)" fill="#b1b1b1"/>
        <path id="Path_12205" data-name="Path 12205" d="M53.229,234.791c.883,1.41,1.826,2.7,2.549,4.121a2.517,2.517,0,0,1-.193,2.743,30.448,30.448,0,0,1-2.761,3.353c-.318.336-.59.388-.893.009a7.843,7.843,0,0,1-2.119-5.827,2.709,2.709,0,0,1,.561-1.162,22.063,22.063,0,0,1,2.856-3.237" transform="translate(-30.595 -144.316)" fill="#b1b1b1"/>
        <path id="Path_12206" data-name="Path 12206" d="M66.825,20.113a2.045,2.045,0,0,1,.423-1.283c.972-1.209,2.114-2.259,3.148-3.41.177-.2.358-.451.586-.028.7,1.3,1.421,2.582,2.108,3.885A2.539,2.539,0,0,1,72.7,22.2c-.907,1.129-1.929,2.166-2.9,3.243-.232.257-.439.387-.653-.03a49.394,49.394,0,0,1-2.227-4.88,2.507,2.507,0,0,1-.1-.415" transform="translate(-41.074 -9.32)" fill="#b1b1b1"/>
        <path id="Path_12207" data-name="Path 12207" d="M29.655,145.056a5.916,5.916,0,0,1-1.587,4.653c-1.473,1.43-3.283,1.449-5.155,1.122-.326-.057-.275-.309-.238-.508.286-1.537.555-3.079.894-4.6.306-1.379,1.385-1.811,2.635-1.97.907-.116,1.816-.214,2.72-.347.582-.085.795.141.737.711a9.387,9.387,0,0,0-.006.943" transform="translate(-13.921 -88.132)" fill="#b1b1b1"/>
        <path id="Path_12208" data-name="Path 12208" d="M51.837,281.059a1.55,1.55,0,0,1-1.012-.291c-1.2-.9-2.384-1.815-3.581-2.716-.328-.247-.267-.437,0-.691.924-.889,1.784-1.844,2.776-2.661a2.569,2.569,0,0,1,3.1-.3c1.112.679,2.175,1.439,3.252,2.176.418.287.485.558.019.934-1.279,1.032-2.512,2.119-3.781,3.164-.23.189-.456.467-.77.385" transform="translate(-28.901 -168.423)" fill="#b1b1b1"/>
        <path id="Path_12209" data-name="Path 12209" d="M62.046,53.136a2.252,2.252,0,0,1,1.485.409A17.375,17.375,0,0,1,66.6,55.968c.275.261.281.45,0,.711-1.024.96-1.944,2.031-3.057,2.9a1.557,1.557,0,0,1-2.176.178c-1.34-.867-2.644-1.792-3.961-2.7-.156-.107-.377-.218-.128-.438a25.861,25.861,0,0,1,3.376-3.079,1.906,1.906,0,0,1,1.385-.408" transform="translate(-35.141 -32.645)" fill="#b1b1b1"/>
        <path id="Path_12210" data-name="Path 12210" d="M70.751,259.451a1.706,1.706,0,0,1-.239,1.1c-.676,1.284-1.463,2.5-2.251,3.717-.1.159-.178.45-.477.193a12.17,12.17,0,0,1-3-3.583,3.088,3.088,0,0,1,0-2.8,19.182,19.182,0,0,1,2.289-3.517c.123-.165.244-.314.458-.1a10.613,10.613,0,0,1,3.137,4.267,1.818,1.818,0,0,1,.081.35,3.309,3.309,0,0,1,0,.371" transform="translate(-39.614 -156.343)" fill="#b1b1b1"/>
        <path id="Path_12211" data-name="Path 12211" d="M89.412,274.49a6.289,6.289,0,0,1-.454,1.92c-.425,1.334-.881,2.657-1.328,3.984-.071.212-.151.459-.437.218-1.419-1.192-2.947-2.272-3.794-4.019a3.04,3.04,0,0,1,.148-2.515c.417-1.159.889-2.3,1.324-3.45.1-.261.138-.466.471-.2a42.025,42.025,0,0,1,3.395,2.829,1.885,1.885,0,0,1,.674,1.228" transform="translate(-51.126 -166.145)" fill="#b1b1b1"/>
        <path id="Path_12212" data-name="Path 12212" d="M110.424,81.677q0,17.394.017,34.787c0,.7-.216.824-.854.822q-11.018-.031-22.035-.013c-.1,0-.194.007-.291,0-.138-.008-.333.039-.356-.151-.03-.245.191-.224.353-.253,1.569-.283,3.136-.571,4.706-.85,4.635-.823,9.269-1.655,13.909-2.449.516-.088.618-.3.615-.755q-.029-4.912-.027-9.824-.006-30.821-.008-61.641c0-1.2,0-1.206,1.108-.8,7.309,2.712,14.539,5.629,21.8,8.465q7.118,2.779,14.228,5.577a3.979,3.979,0,0,1,1.2.657,1.66,1.66,0,0,1,.611,1.322c.1,6.792.071,13.585.076,20.377,0,.835-.005.837-.809.55-.613-.219-1.221-.457-1.839-.662a1.8,1.8,0,0,1-1.274-1.954c.011-4.779,0-9.558,0-14.336,0-.218,0-.437,0-.655,0-1.8-.062-1.9-1.732-2.546L111.485,46.315c-1.057-.412-1.06-.41-1.06.721q0,17.32,0,34.641" transform="translate(-53.415 -24.778)" fill="#23418f"/>
        <path id="Path_12213" data-name="Path 12213" d="M174.464,116.623q0,15.975-.013,31.949c0,.591.113.8.754.877,4.6.572,9.173,1.367,13.756,2.071,3.295.506,6.6.912,9.907,1.365.178.025.452.044.452.235,0,.207-.349.174-.534.174q-8.145.013-16.29.007c-3.66,0-7.321-.02-10.981.017-.707.007-.923-.132-.922-.894q.037-30.93.019-61.861c0-1.077,0-1.075-.992-.687q-6.275,2.445-12.552,4.887c-.7.272-.84.18-.9-.571q-.05-.58-.092-1.16a2.283,2.283,0,0,1,1.634-2.736c1.667-.7,3.354-1.353,5.04-2.008,3.645-1.416,7.3-2.813,10.939-4.238.615-.241.795-.176.793.552q-.035,16.011-.016,32.022" transform="translate(-95.921 -51.584)" fill="#23418f"/>
        <path id="Path_12214" data-name="Path 12214" d="M126.69,124.909c-1.387-.5-2.657-.957-3.923-1.424-.851-.314-.849-.322-.849.618q0,24.346,0,48.692c0,.995,0,.994-.995.994H91.031c-.988,0-1.12-.024-1.12-.2,0-.295.457-.336.687-.366,2.111-.277,4.227-.508,6.341-.76,4.01-.479,8.019-.968,12.029-1.442,2.689-.317,5.379-.633,8.073-.9.689-.07.887-.3.886-1.013q-.038-25.511-.035-51.021c0-.713.19-.731.761-.5,2.215.9,4.431,1.794,6.675,2.614a1.925,1.925,0,0,1,1.353,1.921c.042.894.009,1.791.009,2.793" transform="translate(-55.264 -72.19)" fill="#23418f"/>
        <path id="Path_12215" data-name="Path 12215" d="M95.484,152.993s-.323-.011-.485-.011q-5.159.005-10.332,0c0-.113.278-.315.44-.407,1.874-1.057,3.748-2.116,5.641-3.137a.941.941,0,0,0,.577-.951c.108-10.232.326-20.463.273-30.7a.96.96,0,0,1,.756-1.072q4.2-1.6,8.357-3.284c.556-.225.79-.091.91.447.084.376.207.744.286,1.121a2.39,2.39,0,0,1-1.289,2.675,15.522,15.522,0,0,1-2.595,1.1c-1.366.506-2.456,1.249-2.531,2.845-.012.331-.014.433-.014.638q-.013,14.743,0,29.486c0,.383.009,1.242.009,1.242" transform="translate(-52.041 -69.661)" fill="#23418f"/>
        <path id="Path_12216" data-name="Path 12216" d="M232.261,163.99l6.945,3.482c-.13.13-.479.117-.679.117-3.2.007-6.4-.011-9.6.019-.592.006-.766-.13-.764-.746.027-6.014.02-12.028.021-18.043,0-1.223-.186-1.489-1.336-1.931L214.147,142c-1.677-.645-2.158-1.488-1.87-3.262.019-.12.038-.239.047-.36.1-1.338.1-1.344,1.329-.869q8.539,3.309,17.078,6.62a1.858,1.858,0,0,1,1.35,1.46,2.33,2.33,0,0,0-.035.65q0,8.5.009,16.992c0,.251-.045.614.206.758" transform="translate(-130.429 -84.345)" fill="#23418f"/>
        <path id="Path_12217" data-name="Path 12217" d="M229.012,178.286c0-4.706.01-9.412-.011-14.119,0-.612.127-.779.714-.514a15.666,15.666,0,0,0,1.563.574,2.054,2.054,0,0,1,1.5,2.143c.006.607.016,1.213.017,1.819.01,6.744.028,13.488.012,20.232,0,.59.207.768.738.879q7.831,1.639,15.655,3.32c.133.028.331.046.346.178.026.242-.2.239-.359.245-.363.014-13.356,0-19.489.029-.612,0-.7-.209-.7-.74.017-4.682.01-9.364.01-14.046" transform="translate(-140.757 -100.516)" fill="#23418f"/>
      </g>
    </g>
  </g>
</svg>
