<svg xmlns="http://www.w3.org/2000/svg" width="109.105" height="109.105" viewBox="0 0 109.105 109.105">
  <g id="_025-apartment" data-name="025-apartment" transform="translate(1.5 1.5)">
    <g id="Group_41316" data-name="Group 41316" transform="translate(0 0)">
      <path id="Path_38453" data-name="Path 38453" d="M168.344,80h-8.289a1.554,1.554,0,0,0-1.554,1.554v8.289a1.554,1.554,0,0,0,1.554,1.554h8.289a1.554,1.554,0,0,0,1.554-1.554V81.554A1.554,1.554,0,0,0,168.344,80Zm-1.554,8.289h-5.181V83.109h5.181Z" transform="translate(-125.653 -63.421)" fill="#011839" stroke="#011839" stroke-width="1"/>
      <path id="Path_38454" data-name="Path 38454" d="M300.054,91.4h8.289a1.554,1.554,0,0,0,1.554-1.554V81.554A1.554,1.554,0,0,0,308.344,80h-8.289a1.554,1.554,0,0,0-1.554,1.554v8.289A1.554,1.554,0,0,0,300.054,91.4Zm1.554-8.289h5.181v5.181h-5.181Z" transform="translate(-236.64 -63.421)" fill="#011839" stroke="#011839" stroke-width="1"/>
      <path id="Path_38455" data-name="Path 38455" d="M238.344,80h-8.289a1.554,1.554,0,0,0-1.554,1.554v8.289a1.554,1.554,0,0,0,1.554,1.554h8.289a1.554,1.554,0,0,0,1.554-1.554V81.554A1.554,1.554,0,0,0,238.344,80Zm-1.554,8.289h-5.181V83.109h5.181Z" transform="translate(-181.146 -63.421)" fill="#011839" stroke="#011839" stroke-width="1"/>
      <path id="Path_38456" data-name="Path 38456" d="M168.344,155h-8.289a1.554,1.554,0,0,0-1.554,1.554v8.289a1.554,1.554,0,0,0,1.554,1.554h8.289a1.554,1.554,0,0,0,1.554-1.554v-8.289A1.554,1.554,0,0,0,168.344,155Zm-1.554,8.289h-5.181v-5.181h5.181Z" transform="translate(-125.653 -122.878)" fill="#011839" stroke="#011839" stroke-width="1"/>
      <path id="Path_38457" data-name="Path 38457" d="M309.9,164.844v-8.289A1.554,1.554,0,0,0,308.344,155h-8.289a1.554,1.554,0,0,0-1.554,1.554v8.289a1.554,1.554,0,0,0,1.554,1.554h8.289A1.554,1.554,0,0,0,309.9,164.844Zm-3.109-1.554h-5.181v-5.181h5.181Z" transform="translate(-236.64 -122.878)" fill="#011839" stroke="#011839" stroke-width="1"/>
      <path id="Path_38458" data-name="Path 38458" d="M238.344,155h-8.289a1.554,1.554,0,0,0-1.554,1.554v8.289a1.554,1.554,0,0,0,1.554,1.554h8.289a1.554,1.554,0,0,0,1.554-1.554v-8.289A1.554,1.554,0,0,0,238.344,155Zm-1.554,8.289h-5.181v-5.181h5.181Z" transform="translate(-181.146 -122.878)" fill="#011839" stroke="#011839" stroke-width="1"/>
      <path id="Path_38459" data-name="Path 38459" d="M415.166,452h-6.245c-.647,0-1.171.7-1.171,1.554s.524,1.554,1.171,1.554h6.245c.647,0,1.171-.7,1.171-1.554S415.813,452,415.166,452Z" transform="translate(-321.844 -358.329)" fill="#011839" stroke="#011839" stroke-width="1"/>
      <path id="Path_38460" data-name="Path 38460" d="M408.921,410.109h6.245c.647,0,1.171-.7,1.171-1.554S415.813,407,415.166,407h-6.245c-.647,0-1.171.7-1.171,1.554s.524,1.554,1.171,1.554Z" transform="translate(-321.844 -322.655)" fill="#011839" stroke="#011839" stroke-width="1"/>
      <path id="Path_38461" data-name="Path 38461" d="M408.921,365.109h6.245c.647,0,1.171-.7,1.171-1.554S415.813,362,415.166,362h-6.245c-.647,0-1.171.7-1.171,1.554s.524,1.554,1.171,1.554Z" transform="translate(-321.844 -286.98)" fill="#011839" stroke="#011839" stroke-width="1"/>
      <path id="Path_38462" data-name="Path 38462" d="M408.921,320.109h6.245c.647,0,1.171-.7,1.171-1.554S415.813,317,415.166,317h-6.245c-.647,0-1.171.7-1.171,1.554S408.274,320.109,408.921,320.109Z" transform="translate(-321.844 -251.306)" fill="#011839" stroke="#011839" stroke-width="1"/>
      <path id="Path_38463" data-name="Path 38463" d="M408.921,275.109h6.245c.647,0,1.171-.7,1.171-1.554S415.813,272,415.166,272h-6.245c-.647,0-1.171.7-1.171,1.554S408.274,275.109,408.921,275.109Z" transform="translate(-321.844 -215.632)" fill="#011839" stroke="#011839" stroke-width="1"/>
      <path id="Path_38464" data-name="Path 38464" d="M408.921,230.109h6.245c.647,0,1.171-.7,1.171-1.554S415.813,227,415.166,227h-6.245c-.647,0-1.171.7-1.171,1.554s.524,1.554,1.171,1.554Z" transform="translate(-321.844 -179.957)" fill="#011839" stroke="#011839" stroke-width="1"/>
      <path id="Path_38465" data-name="Path 38465" d="M104.551,103h-2.59V36.163a1.554,1.554,0,0,0-1.1-1.486L81.548,28.793V11.4h2.59a1.554,1.554,0,0,0,1.554-1.554V1.554A1.554,1.554,0,0,0,84.138,0H21.967a1.554,1.554,0,0,0-1.554,1.554V9.844A1.554,1.554,0,0,0,21.967,11.4h2.59V48.39h3.109V11.4H78.439V103H1.554a1.554,1.554,0,1,0,0,3.109h103a1.554,1.554,0,1,0,0-3.109ZM23.521,8.289V3.109H82.584V8.289ZM98.852,103h-17.3V32.043l17.3,5.272Z" fill="#011839" stroke="#011839" stroke-width="3"/>
    </g>
    <path id="Path_38466" data-name="Path 38466" d="M65.28,250.054a1.554,1.554,0,0,0-1.554-1.554H1.554A1.554,1.554,0,0,0,0,250.054v6.735H65.28Z" transform="translate(0 -197.001)" fill="#23418f"/>
    <path id="Path_38467" data-name="Path 38467" d="M135,343.5h9.326v9.326H135Z" transform="translate(-107.023 -272.314)" fill="#23418f"/>
    <path id="Path_38468" data-name="Path 38468" d="M75,343.5h9.326v9.326H75Z" transform="translate(-59.457 -272.314)" fill="#23418f"/>
    <path id="Path_38469" data-name="Path 38469" d="M165,452h7.253v6.217H165Z" transform="translate(-130.806 -358.329)" fill="#23418f"/>
    <path id="Path_38470" data-name="Path 38470" d="M115,452h7.253v6.217H115Z" transform="translate(-91.168 -358.329)" fill="#23418f"/>
    <path id="Path_38471" data-name="Path 38471" d="M76.99,340.492V303.5H20v36.992H36.579V332.72a1.554,1.554,0,0,1,1.554-1.554H58.857a1.554,1.554,0,0,1,1.554,1.554v7.771ZM29.844,324.224a1.554,1.554,0,0,1-1.554-1.554V310.235a1.554,1.554,0,0,1,1.554-1.554h37.3a1.554,1.554,0,0,1,1.554,1.554v12.434a1.554,1.554,0,0,1-1.554,1.554Z" transform="translate(-15.855 -240.603)" fill="#23418f"/>
    <path id="Path_38472" data-name="Path 38472" d="M195,343.5h9.326v9.326H195Z" transform="translate(-154.589 -272.314)" fill="#23418f"/>
  </g>
</svg>
