<svg xmlns="http://www.w3.org/2000/svg" width="118.939" height="117.371" viewBox="0 0 118.939 117.371">
  <g id="_017-estate" data-name="017-estate" transform="translate(1.56 1.5)">
    <path id="Path_38473" data-name="Path 38473" d="M58.5,35.013q-.8-.141-1.595-.337A28.539,28.539,0,0,0,37.585,8.987,24.8,24.8,0,0,1,53.277,3.351h6.054a32.958,32.958,0,0,1,21.281,7.785,9.616,9.616,0,0,1,2.524-2.252A36.29,36.29,0,0,0,59.331,0H53.277A28.159,28.159,0,0,0,33.7,7.97a28.481,28.481,0,0,0-15.86,54.424V103.76a1.669,1.669,0,0,0,.491,1.184l8.935,8.935a1.671,1.671,0,0,0,2.368,0l8.935-8.935a1.669,1.669,0,0,0,.491-1.184V99.293a1.669,1.669,0,0,0-.491-1.184L35.29,94.825l3.281-3.284a1.673,1.673,0,0,0,0-2.368L35.29,85.89l3.281-3.284a1.673,1.673,0,0,0,0-2.368L35.29,76.955l3.281-3.284a1.669,1.669,0,0,0,.491-1.184V62.395a28.548,28.548,0,0,0,17.79-24.288c.545.118,1.095.223,1.644.3ZM35.713,71.792l-3.976,3.978a1.673,1.673,0,0,0,0,2.368l3.281,3.284-3.281,3.284a1.673,1.673,0,0,0,0,2.368l3.281,3.284-3.281,3.284a1.673,1.673,0,0,0,0,2.368l3.976,3.978v3.078l-7.26,7.26-7.26-7.26V63.507a28.557,28.557,0,0,0,14.52,0Zm-7.26-10.7a25.13,25.13,0,1,1,0-50.261,25.688,25.688,0,0,1,2.569.13,27.889,27.889,0,0,0-3.246,5.343c-.022.047-.04.1-.063.145a7.262,7.262,0,1,0,3.474.5,24.543,24.543,0,0,1,3.619-5.305,25.13,25.13,0,0,1-6.353,49.45Zm3.909-37.416a3.918,3.918,0,0,1-.295,1.488A6.663,6.663,0,0,1,30.2,20.522v-.331A3.907,3.907,0,0,1,32.362,23.678ZM29.581,27.42A3.907,3.907,0,0,1,26.86,20.1c0,.136-.011.273-.011.409a10.005,10.005,0,0,0,2.732,6.907Z" transform="translate(0.036 0)" fill="#011839" stroke="#011531" stroke-width="3"/>
    <g id="Group_41317" data-name="Group 41317" transform="translate(61.885 10.834)">
      <circle id="Ellipse_18461" data-name="Ellipse 18461" cx="6.143" cy="6.143" r="6.143" transform="translate(23.104 2)" fill="#23418f"/>
      <path id="Path_38474" data-name="Path 38474" d="M350.67,364.1h19.584v3.351H350.67Z" transform="translate(-331.214 -291.601)" fill="#23418f"/>
      <path id="Path_38475" data-name="Path 38475" d="M328.8,106.913,311.789,94.54a9.494,9.494,0,0,1-17.084,0L277.69,106.913a1.68,1.68,0,0,0-.69,1.356v62.547a1.675,1.675,0,0,0,1.675,1.675h49.144a1.675,1.675,0,0,0,1.675-1.675V108.269a1.68,1.68,0,0,0-.69-1.356Zm-12.416,52.868a1.675,1.675,0,0,1-1.675,1.675H291.781a1.675,1.675,0,0,1-1.675-1.675v-6.7a1.675,1.675,0,0,1,1.675-1.675h22.932a1.675,1.675,0,0,1,1.675,1.675Zm3.8-26.9a1.678,1.678,0,0,1-2.354.261l-1.448-1.162v14.392a1.675,1.675,0,0,1-1.675,1.675H291.781a1.675,1.675,0,0,1-1.675-1.675V131.985l-1.448,1.162a1.676,1.676,0,0,1-2.1-2.616L302.2,118a1.673,1.673,0,0,1,2.1,0l15.637,12.534a1.675,1.675,0,0,1,.259,2.354Z" transform="translate(-274 -82.256)" fill="#23418f"/>
      <path id="Path_38476" data-name="Path 38476" d="M388.675,294.1A1.678,1.678,0,0,0,387,295.775v3.909h3.351v-3.909a1.678,1.678,0,0,0-1.675-1.675Z" transform="translate(-359.428 -237.238)" fill="#23418f"/>
      <path id="Path_38477" data-name="Path 38477" d="M350.67,222.852v15.413h4.765v-3.92a5.026,5.026,0,0,1,10.052,0v3.909h4.765V222.841L360.461,215Z" transform="translate(-331.214 -175.807)" fill="#23418f"/>
    </g>
  </g>
</svg>
